<svg width="105" height="77" viewBox="0 0 105 77" fill="none" xmlns="http://www.w3.org/2000/svg">
<path d="M52.5 24C23.5051 24 0 47.5051 0 76.5H105C105 47.5051 81.4949 24 52.5 24Z" fill="#FDC98D"/>
<path fill-rule="evenodd" clip-rule="evenodd" d="M51.0647 22.0315C53.432 22.0315 55.3533 20.1115 55.3533 17.7458C55.3533 15.38 53.432 13.4601 51.0647 13.4601C48.6975 13.4601 46.7762 15.38 46.7762 17.7458C46.7762 20.1115 48.6975 22.0315 51.0647 22.0315Z" stroke="#0E1B2C" stroke-width="2" stroke-linecap="round"/>
<path fill-rule="evenodd" clip-rule="evenodd" d="M63.9303 17.7458C63.9303 28.46 51.0647 36.8887 51.0647 36.8887C51.0647 36.8887 38.1992 28.46 38.1992 17.7458C38.1992 10.6465 43.9608 4.88867 51.0647 4.88867C58.1687 4.88867 63.9303 10.6465 63.9303 17.7458Z" stroke="#0E1B2C" stroke-width="2" stroke-linecap="round"/>
<path d="M58.0625 35.2053C59.8075 36.789 61.1991 37.7053 61.1991 37.7053C61.1991 37.7053 71.1991 31.1205 71.1991 22.7499C71.1991 19.2443 69.41 16.1574 66.6991 14.3604" stroke="#0E1B2C" stroke-width="2" stroke-linecap="round"/>
<path d="M43.1992 35.2053C41.4542 36.789 40.0626 37.7053 40.0626 37.7053C40.0626 37.7053 30.0626 31.1205 30.0626 22.7499C30.0626 19.2443 31.8517 16.1574 34.5626 14.3604" stroke="#0E1B2C" stroke-width="2" stroke-linecap="round"/>
<path d="M76.3956 24.7051C80.3625 34.4607 78.3887 46.0663 70.4741 53.9808C59.93 64.525 42.8345 64.525 32.2904 53.9808C24.6446 46.335 22.5429 35.2446 25.9853 25.7051" stroke="#0E1B2C" stroke-width="2" stroke-linecap="round"/>
</svg>
