<svg width="105" height="71" viewBox="0 0 105 71" fill="none" xmlns="http://www.w3.org/2000/svg">
<path d="M52.5 18C23.5051 18 0 41.5051 0 70.5H105C105 41.5051 81.4949 18 52.5 18Z" fill="#B8AAEE"/>
<path d="M63.5714 54.9648V55.9648C64.1237 55.9648 64.5714 55.5171 64.5714 54.9648H63.5714ZM25 54.9648H24C24 55.5171 24.4477 55.9648 25 55.9648V54.9648ZM79 55V56C79.5523 56 80 55.5523 80 55H79ZM54.8571 12.5639C54.8571 18.3981 50.1253 23.1278 44.2857 23.1278V25.1278C51.2287 25.1278 56.8571 19.5039 56.8571 12.5639H54.8571ZM44.2857 23.1278C38.4461 23.1278 33.7143 18.3981 33.7143 12.5639H31.7143C31.7143 19.5039 37.3428 25.1278 44.2857 25.1278V23.1278ZM33.7143 12.5639C33.7143 6.72967 38.4461 2 44.2857 2V0C37.3428 0 31.7143 5.62387 31.7143 12.5639H33.7143ZM44.2857 2C50.1253 2 54.8571 6.72967 54.8571 12.5639H56.8571C56.8571 5.62387 51.2287 0 44.2857 0V2ZM63.5714 53.9648H25V55.9648H63.5714V53.9648ZM26 54.9648C26 54.9595 26 54.9541 26 54.9488C26 54.9434 26 54.9381 26 54.9327C26 54.9274 26 54.922 26 54.9167C26 54.9114 26 54.906 26 54.9007C26 54.8953 26 54.89 26 54.8846C26 54.8793 26 54.8739 26 54.8686C26 54.8633 26 54.8579 26 54.8526C26 54.8472 26 54.8419 26 54.8365C26 54.8312 26 54.8259 26 54.8205C26 54.8152 26 54.8098 26 54.8045C26 54.7992 26 54.7938 26 54.7885C26 54.7832 26 54.7778 26 54.7725C26 54.7671 26 54.7618 26 54.7565C26 54.7511 26 54.7458 26 54.7405C26 54.7351 26 54.7298 26 54.7245C26 54.7191 26 54.7138 26 54.7085C26 54.7031 26 54.6978 26 54.6925C26 54.6871 26 54.6818 26 54.6765C26 54.6711 26 54.6658 26 54.6605C26 54.6552 26 54.6498 26 54.6445C26 54.6392 26 54.6338 26 54.6285C26 54.6232 26 54.6179 26 54.6125C26 54.6072 26 54.6019 26 54.5966C26 54.5912 26 54.5859 26 54.5806C26 54.5753 26 54.5699 26 54.5646C26 54.5593 26 54.554 26 54.5486C26 54.5433 26 54.538 26 54.5327C26 54.5274 26 54.522 26 54.5167C26 54.5114 26 54.5061 26 54.5008C26 54.4954 26 54.4901 26 54.4848C26 54.4795 26 54.4742 26 54.4689C26 54.4635 26 54.4582 26 54.4529C26 54.4476 26 54.4423 26 54.437C26 54.4316 26 54.4263 26 54.421C26 54.4157 26 54.4104 26 54.4051C26 54.3998 26 54.3945 26 54.3891C26 54.3838 26 54.3785 26 54.3732C26 54.3679 26 54.3626 26 54.3573C26 54.352 26 54.3467 26 54.3414C26 54.336 26 54.3307 26 54.3254C26 54.3201 26 54.3148 26 54.3095C26 54.3042 26 54.2989 26 54.2936C26 54.2883 26 54.283 26 54.2777C26 54.2724 26 54.2671 26 54.2618C26 54.2565 26 54.2512 26 54.2459C26 54.2406 26 54.2353 26 54.23C26 54.2247 26 54.2194 26 54.2141C26 54.2088 26 54.2035 26 54.1982C26 54.1929 26 54.1876 26 54.1823C26 54.177 26 54.1717 26 54.1664C26 54.1611 26 54.1558 26 54.1505C26 54.1452 26 54.1399 26 54.1346C26 54.1293 26 54.124 26 54.1187C26 54.1134 26 54.1081 26 54.1029C26 54.0976 26 54.0923 26 54.087C26 54.0817 26 54.0764 26 54.0711C26 54.0658 26 54.0605 26 54.0552C26 54.05 26 54.0447 26 54.0394C26 54.0341 26 54.0288 26 54.0235C26 54.0182 26 54.0129 26 54.0077C26 54.0024 26 53.9971 26 53.9918C26 53.9865 26 53.9812 26 53.976C26 53.9707 26 53.9654 26 53.9601C26 53.9548 26 53.9495 26 53.9443C26 53.939 26 53.9337 26 53.9284C26 53.9231 26 53.9179 26 53.9126C26 53.9073 26 53.902 26 53.8968C26 53.8915 26 53.8862 26 53.8809C26 53.8757 26 53.8704 26 53.8651C26 53.8598 26 53.8545 26 53.8493C26 53.844 26 53.8387 26 53.8335C26 53.8282 26 53.8229 26 53.8176C26 53.8124 26 53.8071 26 53.8018C26 53.7966 26 53.7913 26 53.786C26 53.7808 26 53.7755 26 53.7702C26 53.7649 26 53.7597 26 53.7544C26 53.7491 26 53.7439 26 53.7386C26 53.7333 26 53.7281 26 53.7228C26 53.7175 26 53.7123 26 53.707C26 53.7018 26 53.6965 26 53.6912C26 53.686 26 53.6807 26 53.6754C26 53.6702 26 53.6649 26 53.6597C26 53.6544 26 53.6491 26 53.6439C26 53.6386 26 53.6334 26 53.6281C26 53.6229 26 53.6176 26 53.6123C26 53.6071 26 53.6018 26 53.5966C26 53.5913 26 53.5861 26 53.5808C26 53.5756 26 53.5703 26 53.565C26 53.5598 26 53.5545 26 53.5493C26 53.544 26 53.5388 26 53.5335C26 53.5283 26 53.523 26 53.5178C26 53.5125 26 53.5073 26 53.502C26 53.4968 26 53.4915 26 53.4863C26 53.481 26 53.4758 26 53.4706C26 53.4653 26 53.4601 26 53.4548C26 53.4496 26 53.4443 26 53.4391C26 53.4338 26 53.4286 26 53.4234C26 53.4181 26 53.4129 26 53.4076C26 53.4024 26 53.3971 26 53.3919C26 53.3867 26 53.3814 26 53.3762C26 53.3709 26 53.3657 26 53.3605C26 53.3552 26 53.35 26 53.3448C26 53.3395 26 53.3343 26 53.3291C26 53.3238 26 53.3186 26 53.3133C26 53.3081 26 53.3029 26 53.2976C26 53.2924 26 53.2872 26 53.2819C26 53.2767 26 53.2715 26 53.2663C26 53.261 26 53.2558 26 53.2506C26 53.2453 26 53.2401 26 53.2349C26 53.2296 26 53.2244 26 53.2192C26 53.214 26 53.2087 26 53.2035C26 53.1983 26 53.1931 26 53.1878C26 53.1826 26 53.1774 26 53.1722C26 53.1669 26 53.1617 26 53.1565C26 53.1513 26 53.1461 26 53.1408C26 53.1356 26 53.1304 26 53.1252C26 53.12 26 53.1147 26 53.1095C26 53.1043 26 53.0991 26 53.0939C26 53.0886 26 53.0834 26 53.0782C26 53.073 26 53.0678 26 53.0626C26 53.0573 26 53.0521 26 53.0469C26 53.0417 26 53.0365 26 53.0313C26 53.0261 26 53.0209 26 53.0156C26 53.0104 26 53.0052 26 53C26 52.9948 26 52.9896 26 52.9844C26 52.9792 26 52.974 26 52.9688C26 52.9636 26 52.9583 26 52.9531C26 52.9479 26 52.9427 26 52.9375C26 52.9323 26 52.9271 26 52.9219C26 52.9167 26 52.9115 26 52.9063C26 52.9011 26 52.8959 26 52.8907C26 52.8855 26 52.8803 26 52.8751C26 52.8699 26 52.8647 26 52.8595C26 52.8543 26 52.8491 26 52.8439C26 52.8387 26 52.8335 26 52.8283C26 52.8231 26 52.8179 26 52.8127C26 52.8075 26 52.8023 26 52.7971C26 52.7919 26 52.7867 26 52.7815C26 52.7764 26 52.7712 26 52.766C26 52.7608 26 52.7556 26 52.7504C26 52.7452 26 52.74 26 52.7348C26 52.7296 26 52.7245 26 52.7193C26 52.7141 26 52.7089 26 52.7037C26 52.6985 26 52.6933 26 52.6881C26 52.683 26 52.6778 26 52.6726C26 52.6674 26 52.6622 26 52.657C26 52.6519 26 52.6467 26 52.6415C26 52.6363 26 52.6311 26 52.626C26 52.6208 26 52.6156 26 52.6104C26 52.6052 26 52.6001 26 52.5949C26 52.5897 26 52.5845 26 52.5793C26 52.5742 26 52.569 26 52.5638C26 52.5586 26 52.5535 26 52.5483C26 52.5431 26 52.5379 26 52.5328C26 52.5276 26 52.5224 26 52.5173C26 52.5121 26 52.5069 26 52.5018C26 52.4966 26 52.4914 26 52.4862C26 52.4811 26 52.4759 26 52.4707C26 52.4656 26 52.4604 26 52.4552C26 52.4501 26 52.4449 26 52.4397C26 52.4346 26 52.4294 26 52.4242C26 52.4191 26 52.4139 26 52.4088C26 52.4036 26 52.3984 26 52.3933C26 52.3881 26 52.3829 26 52.3778C26 52.3726 26 52.3675 26 52.3623C26 52.3572 26 52.352 26 52.3468C26 52.3417 26 52.3365 26 52.3314C26 52.3262 26 52.3211 26 52.3159C26 52.3107 26 52.3056 26 52.3004C26 52.2953 26 52.2901 26 52.285C26 52.2798 26 52.2747 26 52.2695C26 52.2644 26 52.2592 26 52.2541C26 52.2489 26 52.2438 26 52.2386C26 52.2335 26 52.2283 26 52.2232C26 52.218 26 52.2129 26 52.2078C26 52.2026 26 52.1975 26 52.1923C26 52.1872 26 52.182 26 52.1769C26 52.1717 26 52.1666 26 52.1615C26 52.1563 26 52.1512 26 52.146C26 52.1409 26 52.1358 26 52.1306C26 52.1255 26 52.1203 26 52.1152C26 52.1101 26 52.1049 26 52.0998C26 52.0947 26 52.0895 26 52.0844C26 52.0793 26 52.0741 26 52.069C26 52.0639 26 52.0587 26 52.0536C26 52.0485 26 52.0433 26 52.0382C26 52.0331 26 52.0279 26 52.0228C26 52.0177 26 52.0125 26 52.0074C26 52.0023 26 51.9972 26 51.992C26 51.9869 26 51.9818 26 51.9767C26 51.9715 26 51.9664 26 51.9613C26 51.9562 26 51.951 26 51.9459C26 51.9408 26 51.9357 26 51.9305C26 51.9254 26 51.9203 26 51.9152C26 51.9101 26 51.9049 26 51.8998C26 51.8947 26 51.8896 26 51.8845C26 51.8793 26 51.8742 26 51.8691C26 51.864 26 51.8589 26 51.8538C26 51.8487 26 51.8435 26 51.8384C26 51.8333 26 51.8282 26 51.8231C26 51.818 26 51.8129 26 51.8078C26 51.8026 26 51.7975 26 51.7924C26 51.7873 26 51.7822 26 51.7771C26 51.772 26 51.7669 26 51.7618C26 51.7567 26 51.7516 26 51.7465C26 51.7413 26 51.7362 26 51.7311C26 51.726 26 51.7209 26 51.7158C26 51.7107 26 51.7056 26 51.7005C26 51.6954 26 51.6903 26 51.6852C26 51.6801 26 51.675 26 51.6699C26 51.6648 26 51.6597 26 51.6546C26 51.6495 26 51.6444 26 51.6393C26 51.6342 26 51.6292 26 51.6241C26 51.619 26 51.6139 26 51.6088C26 51.6037 26 51.5986 26 51.5935C26 51.5884 26 51.5833 26 51.5782C26 51.5731 26 51.568 26 51.563C26 51.5579 26 51.5528 26 51.5477C26 51.5426 26 51.5375 26 51.5324C26 51.5273 26 51.5223 26 51.5172C26 51.5121 26 51.507 26 51.5019C26 51.4968 26 51.4918 26 51.4867C26 51.4816 26 51.4765 26 51.4714C26 51.4664 26 51.4613 26 51.4562C26 51.4511 26 51.446 26 51.441C26 51.4359 26 51.4308 26 51.4257C26 51.4206 26 51.4156 26 51.4105C26 51.4054 26 51.4003 26 51.3953C26 51.3902 26 51.3851 26 51.3801C26 51.375 26 51.3699 26 51.3648C26 51.3598 26 51.3547 26 51.3496C26 51.3446 26 51.3395 26 51.3344C26 51.3294 26 51.3243 26 51.3192C26 51.3142 26 51.3091 26 51.304C26 51.299 26 51.2939 26 51.2888C26 51.2838 26 51.2787 26 51.2736C26 51.2686 26 51.2635 26 51.2585C26 51.2534 26 51.2483 26 51.2433C26 51.2382 26 51.2332 26 51.2281C26 51.223 26 51.218 26 51.2129C26 51.2079 26 51.2028 26 51.1978C26 51.1927 26 51.1876 26 51.1826C26 51.1775 26 51.1725 26 51.1674C26 51.1624 26 51.1573 26 51.1523C26 51.1472 26 51.1422 26 51.1371C26 51.1321 26 51.127 26 51.122C26 51.1169 26 51.1119 26 51.1068C26 51.1018 26 51.0967 26 51.0917C26 51.0867 26 51.0816 26 51.0766C26 51.0715 26 51.0665 26 51.0614C26 51.0564 26 51.0514 26 51.0463C26 51.0413 26 51.0362 26 51.0312C26 51.0262 26 51.0211 26 51.0161C26 51.011 26 51.006 26 51.001C26 50.9959 26 50.9909 26 50.9859C26 50.9808 26 50.9758 26 50.9708C26 50.9657 26 50.9607 26 50.9557C26 50.9506 26 50.9456 26 50.9406C26 50.9355 26 50.9305 26 50.9255C26 50.9204 26 50.9154 26 50.9104C26 50.9054 26 50.9003 26 50.8953C26 50.8903 26 50.8853 26 50.8802C26 50.8752 26 50.8702 26 50.8652C26 50.8601 26 50.8551 26 50.8501C26 50.8451 26 50.84 26 50.835C26 50.83 26 50.825 26 50.82C26 50.8149 26 50.8099 26 50.8049C26 50.7999 26 50.7949 26 50.7899C26 50.7848 26 50.7798 26 50.7748C26 50.7698 26 50.7648 26 50.7598C26 50.7547 26 50.7497 26 50.7447C26 50.7397 26 50.7347 26 50.7297C26 50.7247 26 50.7197 26 50.7147C26 50.7097 26 50.7046 26 50.6996C26 50.6946 26 50.6896 26 50.6846C26 50.6796 26 50.6746 26 50.6696C26 50.6646 26 50.6596 26 50.6546C26 50.6496 26 50.6446 26 50.6396C26 50.6346 26 50.6296 26 50.6246C26 50.6196 26 50.6146 26 50.6096C26 50.6046 26 50.5996 26 50.5946C26 50.5896 26 50.5846 26 50.5796C26 50.5746 26 50.5696 26 50.5646C26 50.5596 26 50.5546 26 50.5496C26 50.5446 26 50.5396 26 50.5347C26 50.5297 26 50.5247 26 50.5197C26 50.5147 26 50.5097 26 50.5047C26 50.4997 26 50.4947 26 50.4898C26 50.4848 26 50.4798 26 50.4748C26 50.4698 26 50.4648 26 50.4599C26 50.4549 26 50.4499 26 50.4449C26 50.4399 26 50.4349 26 50.43C26 50.425 26 50.42 26 50.415C26 50.41 26 50.4051 26 50.4001C26 50.3951 26 50.3901 26 50.3852C26 50.3802 26 50.3752 26 50.3702C26 50.3653 26 50.3603 26 50.3553C26 50.3503 26 50.3454 26 50.3404C26 50.3354 26 50.3304 26 50.3255C26 50.3205 26 50.3155 26 50.3106C26 50.3056 26 50.3006 26 50.2957C26 50.2907 26 50.2857 26 50.2808C26 50.2758 26 50.2708 26 50.2659C26 50.2609 26 50.2559 26 50.251C26 50.246 26 50.2411 26 50.2361C26 50.2311 26 50.2262 26 50.2212C26 50.2163 26 50.2113 26 50.2063C26 50.2014 26 50.1964 26 50.1915C26 50.1865 26 50.1816 26 50.1766C26 50.1716 26 50.1667 26 50.1617C26 50.1568 26 50.1518 26 50.1469C26 50.1419 26 50.137 26 50.132C26 50.1271 26 50.1221 26 50.1172C26 50.1122 26 50.1073 26 50.1023C26 50.0974 26 50.0924 26 50.0875C26 50.0826 26 50.0776 26 50.0727C26 50.0677 26 50.0628 26 50.0578C26 50.0529 26 50.048 26 50.043C26 50.0381 26 50.0331 26 50.0282C26 50.0233 26 50.0183 26 50.0134C26 50.0084 26 50.0035 26 49.9986C26 49.9936 26 49.9887 26 49.9838C26 49.9788 26 49.9739 26 49.969C26 49.964 26 49.9591 26 49.9542C26 49.9492 26 49.9443 26 49.9394C26 49.9344 26 49.9295 26 49.9246C26 49.9197 26 49.9147 26 49.9098C26 49.9049 26 49.8999 26 49.895C26 49.8901 26 49.8852 26 49.8802C26 49.8753 26 49.8704 26 49.8655C26 49.8606 26 49.8556 26 49.8507C26 49.8458 26 49.8409 26 49.836C26 49.831 26 49.8261 26 49.8212C26 49.8163 26 49.8114 26 49.8064C26 49.8015 26 49.7966 26 49.7917C26 49.7868 26 49.7819 26 49.777C26 49.7721 26 49.7671 26 49.7622C26 49.7573 26 49.7524 26 49.7475C26 49.7426 26 49.7377 26 49.7328C26 49.7279 26 49.723 26 49.7181C26 49.7131 26 49.7082 26 49.7033C26 49.6984 26 49.6935 26 49.6886C26 49.6837 26 49.6788 26 49.6739C26 49.669 26 49.6641 26 49.6592C26 49.6543 26 49.6494 26 49.6445C26 49.6396 26 49.6347 26 49.6298C26 49.6249 26 49.62 26 49.6151C26 49.6102 26 49.6053 26 49.6005C26 49.5956 26 49.5907 26 49.5858C26 49.5809 26 49.576 26 49.5711C26 49.5662 26 49.5613 26 49.5564C26 49.5515 26 49.5467 26 49.5418C26 49.5369 26 49.532 26 49.5271C26 49.5222 26 49.5173 26 49.5125C26 49.5076 26 49.5027 26 49.4978C26 49.4929 26 49.488 26 49.4832C26 49.4783 26 49.4734 26 49.4685C26 49.4636 26 49.4588 26 49.4539C26 49.449 26 49.4441 26 49.4393C26 49.4344 26 49.4295 26 49.4246C26 49.4198 26 49.4149 26 49.41C26 49.4051 26 49.4003 26 49.3954C26 49.3905 26 49.3857 26 49.3808C26 49.3759 26 49.371 26 49.3662C26 49.3613 26 49.3564 26 49.3516C26 49.3467 26 49.3419 26 49.337C26 49.3321 26 49.3273 26 49.3224C26 49.3175 26 49.3127 26 49.3078C26 49.3029 26 49.2981 26 49.2932C26 49.2884 26 49.2835 26 49.2787C26 49.2738 26 49.2689 26 49.2641C26 49.2592 26 49.2544 26 49.2495C26 49.2447 26 49.2398 26 49.235C26 49.2301 26 49.2252 26 49.2204C26 49.2155 26 49.2107 26 49.2058C26 49.201 26 49.1961 26 49.1913C26 49.1864 26 49.1816 26 49.1768C26 49.1719 26 49.1671 26 49.1622C26 49.1574 26 49.1525 26 49.1477C26 49.1428 26 49.138 26 49.1332C26 49.1283 26 49.1235 26 49.1186C26 49.1138 26 49.109 26 49.1041C26 49.0993 26 49.0944 26 49.0896C26 49.0848 26 49.0799 26 49.0751C26 49.0703 26 49.0654 26 49.0606C26 49.0558 26 49.0509 26 49.0461C26 49.0413 26 49.0364 26 49.0316C26 49.0268 26 49.022 26 49.0171C26 49.0123 26 49.0075 26 49.0026C26 48.9978 26 48.993 26 48.9882C26 48.9833 26 48.9785 26 48.9737C26 48.9689 26 48.964 26 48.9592C26 48.9544 26 48.9496 26 48.9448C26 48.9399 26 48.9351 26 48.9303C26 48.9255 26 48.9207 26 48.9159C26 48.911 26 48.9062 26 48.9014C26 48.8966 26 48.8918 26 48.887C26 48.8822 26 48.8773 26 48.8725C26 48.8677 26 48.8629 26 48.8581C26 48.8533 26 48.8485 26 48.8437C26 48.8389 26 48.8341 26 48.8293C26 48.8244 26 48.8196 26 48.8148C26 48.81 26 48.8052 26 48.8004C26 48.7956 26 48.7908 26 48.786C26 48.7812 26 48.7764 26 48.7716C26 48.7668 26 48.762 26 48.7572C26 48.7524 26 48.7476 26 48.7428C26 48.738 26 48.7332 26 48.7284C26 48.7236 26 48.7189 26 48.7141C26 48.7093 26 48.7045 26 48.6997C26 48.6949 26 48.6901 26 48.6853C26 48.6805 26 48.6757 26 48.671C26 48.6662 26 48.6614 26 48.6566C26 48.6518 26 48.647 26 48.6422C26 48.6375 26 48.6327 26 48.6279C26 48.6231 26 48.6183 26 48.6135C26 48.6088 26 48.604 26 48.5992C26 48.5944 26 48.5896 26 48.5849C26 48.5801 26 48.5753 26 48.5705C26 48.5658 26 48.561 26 48.5562C26 48.5514 26 48.5467 26 48.5419C26 48.5371 26 48.5323 26 48.5276C26 48.5228 26 48.518 26 48.5133C26 48.5085 26 48.5037 26 48.499C26 48.4942 26 48.4894 26 48.4847C26 48.4799 26 48.4751 26 48.4704C26 48.4656 26 48.4608 26 48.4561C26 48.4513 26 48.4466 26 48.4418C26 48.437 26 48.4323 26 48.4275C26 48.4228 26 48.418 26 48.4133C26 48.4085 26 48.4037 26 48.399C26 48.3942 26 48.3895 26 48.3847C26 48.38 26 48.3752 26 48.3705C26 48.3657 26 48.361 26 48.3562C26 48.3515 26 48.3467 26 48.342C26 48.3372 26 48.3325 26 48.3277C26 48.323 26 48.3182 26 48.3135C26 48.3088 26 48.304 26 48.2993C26 48.2945 26 48.2898 26 48.285C26 48.2803 26 48.2756 26 48.2708C26 48.2661 26 48.2613 26 48.2566C26 48.2519 26 48.2471 26 48.2424C26 48.2377 26 48.2329 26 48.2282C26 48.2235 26 48.2187 26 48.214C26 48.2093 26 48.2045 26 48.1998C26 48.1951 26 48.1903 26 48.1856C26 48.1809 26 48.1762 26 48.1714C26 48.1667 26 48.162 26 48.1572C26 48.1525 26 48.1478 26 48.1431C26 48.1384 26 48.1336 26 48.1289C26 48.1242 26 48.1195 26 48.1147C26 48.11 26 48.1053 26 48.1006C26 48.0959 26 48.0912 26 48.0864C26 48.0817 26 48.077 26 48.0723C26 48.0676 26 48.0629 26 48.0582C26 48.0534 26 48.0487 26 48.044C26 48.0393 26 48.0346 26 48.0299C26 48.0252 26 48.0205 26 48.0158C26 48.0111 26 48.0064 26 48.0016C26 47.9969 26 47.9922 26 47.9875C26 47.9828 26 47.9781 26 47.9734C26 47.9687 26 47.964 26 47.9593C26 47.9546 26 47.9499 26 47.9452C26 47.9405 26 47.9358 26 47.9311C26 47.9264 26 47.9217 26 47.917C26 47.9123 26 47.9077 26 47.903C26 47.8983 26 47.8936 26 47.8889C26 47.8842 26 47.8795 26 47.8748C26 47.8701 26 47.8654 26 47.8608C26 47.8561 26 47.8514 26 47.8467C26 47.842 26 47.8373 26 47.8326C26 47.828 26 47.8233 26 47.8186C26 47.8139 26 47.8092 26 47.8045C26 47.7999 26 47.7952 26 47.7905C26 47.7858 26 47.7812 26 47.7765C26 47.7718 26 47.7671 26 47.7624C26 47.7578 26 47.7531 26 47.7484C26 47.7438 26 47.7391 26 47.7344C26 47.7297 26 47.7251 26 47.7204C26 47.7157 26 47.7111 26 47.7064C26 47.7017 26 47.6971 26 47.6924C26 47.6877 26 47.6831 26 47.6784C26 47.6737 26 47.6691 26 47.6644C26 47.6597 26 47.6551 26 47.6504C26 47.6458 26 47.6411 26 47.6364C26 47.6318 26 47.6271 26 47.6225C26 47.6178 26 47.6132 26 47.6085C26 47.6039 26 47.5992 26 47.5945C26 47.5899 26 47.5852 26 47.5806C26 47.5759 26 47.5713 26 47.5666C26 47.562 26 47.5573 26 47.5527C26 47.548 26 47.5434 26 47.5388C26 47.5341 26 47.5295 26 47.5248C26 47.5202 26 47.5155 26 47.5109C26 47.5063 26 47.5016 26 47.497C26 47.4923 26 47.4877 26 47.4831C26 47.4784 26 47.4738 26 47.4691C26 47.4645 26 47.4599 26 47.4552C26 47.4506 26 47.446 26 47.4413C26 47.4367 26 47.4321 26 47.4274C26 47.4228 26 47.4182 26 47.4136C26 47.4089 26 47.4043 26 47.3997C26 47.395 26 47.3904 26 47.3858C26 47.3812 26 47.3765 26 47.3719C26 47.3673 26 47.3627 26 47.3581C26 47.3534 26 47.3488 26 47.3442C26 47.3396 26 47.335 26 47.3303C26 47.3257 26 47.3211 26 47.3165C26 47.3119 26 47.3073 26 47.3026C26 47.298 26 47.2934 26 47.2888C26 47.2842 26 47.2796 26 47.275C26 47.2704 26 47.2657 26 47.2611H24C24 47.2657 24 47.2704 24 47.275C24 47.2796 24 47.2842 24 47.2888C24 47.2934 24 47.298 24 47.3026C24 47.3073 24 47.3119 24 47.3165C24 47.3211 24 47.3257 24 47.3303C24 47.335 24 47.3396 24 47.3442C24 47.3488 24 47.3534 24 47.3581C24 47.3627 24 47.3673 24 47.3719C24 47.3765 24 47.3812 24 47.3858C24 47.3904 24 47.395 24 47.3997C24 47.4043 24 47.4089 24 47.4136C24 47.4182 24 47.4228 24 47.4274C24 47.4321 24 47.4367 24 47.4413C24 47.446 24 47.4506 24 47.4552C24 47.4599 24 47.4645 24 47.4691C24 47.4738 24 47.4784 24 47.4831C24 47.4877 24 47.4923 24 47.497C24 47.5016 24 47.5063 24 47.5109C24 47.5155 24 47.5202 24 47.5248C24 47.5295 24 47.5341 24 47.5388C24 47.5434 24 47.548 24 47.5527C24 47.5573 24 47.562 24 47.5666C24 47.5713 24 47.5759 24 47.5806C24 47.5852 24 47.5899 24 47.5945C24 47.5992 24 47.6039 24 47.6085C24 47.6132 24 47.6178 24 47.6225C24 47.6271 24 47.6318 24 47.6364C24 47.6411 24 47.6458 24 47.6504C24 47.6551 24 47.6597 24 47.6644C24 47.6691 24 47.6737 24 47.6784C24 47.6831 24 47.6877 24 47.6924C24 47.6971 24 47.7017 24 47.7064C24 47.7111 24 47.7157 24 47.7204C24 47.7251 24 47.7297 24 47.7344C24 47.7391 24 47.7438 24 47.7484C24 47.7531 24 47.7578 24 47.7624C24 47.7671 24 47.7718 24 47.7765C24 47.7812 24 47.7858 24 47.7905C24 47.7952 24 47.7999 24 47.8045C24 47.8092 24 47.8139 24 47.8186C24 47.8233 24 47.828 24 47.8326C24 47.8373 24 47.842 24 47.8467C24 47.8514 24 47.8561 24 47.8608C24 47.8654 24 47.8701 24 47.8748C24 47.8795 24 47.8842 24 47.8889C24 47.8936 24 47.8983 24 47.903C24 47.9077 24 47.9123 24 47.917C24 47.9217 24 47.9264 24 47.9311C24 47.9358 24 47.9405 24 47.9452C24 47.9499 24 47.9546 24 47.9593C24 47.964 24 47.9687 24 47.9734C24 47.9781 24 47.9828 24 47.9875C24 47.9922 24 47.9969 24 48.0016C24 48.0064 24 48.0111 24 48.0158C24 48.0205 24 48.0252 24 48.0299C24 48.0346 24 48.0393 24 48.044C24 48.0487 24 48.0534 24 48.0582C24 48.0629 24 48.0676 24 48.0723C24 48.077 24 48.0817 24 48.0864C24 48.0912 24 48.0959 24 48.1006C24 48.1053 24 48.11 24 48.1147C24 48.1195 24 48.1242 24 48.1289C24 48.1336 24 48.1384 24 48.1431C24 48.1478 24 48.1525 24 48.1572C24 48.162 24 48.1667 24 48.1714C24 48.1762 24 48.1809 24 48.1856C24 48.1903 24 48.1951 24 48.1998C24 48.2045 24 48.2093 24 48.214C24 48.2187 24 48.2235 24 48.2282C24 48.2329 24 48.2377 24 48.2424C24 48.2471 24 48.2519 24 48.2566C24 48.2613 24 48.2661 24 48.2708C24 48.2756 24 48.2803 24 48.285C24 48.2898 24 48.2945 24 48.2993C24 48.304 24 48.3088 24 48.3135C24 48.3182 24 48.323 24 48.3277C24 48.3325 24 48.3372 24 48.342C24 48.3467 24 48.3515 24 48.3562C24 48.361 24 48.3657 24 48.3705C24 48.3752 24 48.38 24 48.3847C24 48.3895 24 48.3942 24 48.399C24 48.4037 24 48.4085 24 48.4133C24 48.418 24 48.4228 24 48.4275C24 48.4323 24 48.437 24 48.4418C24 48.4466 24 48.4513 24 48.4561C24 48.4608 24 48.4656 24 48.4704C24 48.4751 24 48.4799 24 48.4847C24 48.4894 24 48.4942 24 48.499C24 48.5037 24 48.5085 24 48.5133C24 48.518 24 48.5228 24 48.5276C24 48.5323 24 48.5371 24 48.5419C24 48.5467 24 48.5514 24 48.5562C24 48.561 24 48.5658 24 48.5705C24 48.5753 24 48.5801 24 48.5849C24 48.5896 24 48.5944 24 48.5992C24 48.604 24 48.6088 24 48.6135C24 48.6183 24 48.6231 24 48.6279C24 48.6327 24 48.6375 24 48.6422C24 48.647 24 48.6518 24 48.6566C24 48.6614 24 48.6662 24 48.671C24 48.6757 24 48.6805 24 48.6853C24 48.6901 24 48.6949 24 48.6997C24 48.7045 24 48.7093 24 48.7141C24 48.7189 24 48.7236 24 48.7284C24 48.7332 24 48.738 24 48.7428C24 48.7476 24 48.7524 24 48.7572C24 48.762 24 48.7668 24 48.7716C24 48.7764 24 48.7812 24 48.786C24 48.7908 24 48.7956 24 48.8004C24 48.8052 24 48.81 24 48.8148C24 48.8196 24 48.8244 24 48.8293C24 48.8341 24 48.8389 24 48.8437C24 48.8485 24 48.8533 24 48.8581C24 48.8629 24 48.8677 24 48.8725C24 48.8773 24 48.8822 24 48.887C24 48.8918 24 48.8966 24 48.9014C24 48.9062 24 48.911 24 48.9159C24 48.9207 24 48.9255 24 48.9303C24 48.9351 24 48.9399 24 48.9448C24 48.9496 24 48.9544 24 48.9592C24 48.964 24 48.9689 24 48.9737C24 48.9785 24 48.9833 24 48.9882C24 48.993 24 48.9978 24 49.0026C24 49.0075 24 49.0123 24 49.0171C24 49.022 24 49.0268 24 49.0316C24 49.0364 24 49.0413 24 49.0461C24 49.0509 24 49.0558 24 49.0606C24 49.0654 24 49.0703 24 49.0751C24 49.0799 24 49.0848 24 49.0896C24 49.0944 24 49.0993 24 49.1041C24 49.109 24 49.1138 24 49.1186C24 49.1235 24 49.1283 24 49.1332C24 49.138 24 49.1428 24 49.1477C24 49.1525 24 49.1574 24 49.1622C24 49.1671 24 49.1719 24 49.1768C24 49.1816 24 49.1864 24 49.1913C24 49.1961 24 49.201 24 49.2058C24 49.2107 24 49.2155 24 49.2204C24 49.2252 24 49.2301 24 49.235C24 49.2398 24 49.2447 24 49.2495C24 49.2544 24 49.2592 24 49.2641C24 49.2689 24 49.2738 24 49.2787C24 49.2835 24 49.2884 24 49.2932C24 49.2981 24 49.3029 24 49.3078C24 49.3127 24 49.3175 24 49.3224C24 49.3273 24 49.3321 24 49.337C24 49.3419 24 49.3467 24 49.3516C24 49.3564 24 49.3613 24 49.3662C24 49.371 24 49.3759 24 49.3808C24 49.3857 24 49.3905 24 49.3954C24 49.4003 24 49.4051 24 49.41C24 49.4149 24 49.4198 24 49.4246C24 49.4295 24 49.4344 24 49.4393C24 49.4441 24 49.449 24 49.4539C24 49.4588 24 49.4636 24 49.4685C24 49.4734 24 49.4783 24 49.4832C24 49.488 24 49.4929 24 49.4978C24 49.5027 24 49.5076 24 49.5125C24 49.5173 24 49.5222 24 49.5271C24 49.532 24 49.5369 24 49.5418C24 49.5467 24 49.5515 24 49.5564C24 49.5613 24 49.5662 24 49.5711C24 49.576 24 49.5809 24 49.5858C24 49.5907 24 49.5956 24 49.6005C24 49.6053 24 49.6102 24 49.6151C24 49.62 24 49.6249 24 49.6298C24 49.6347 24 49.6396 24 49.6445C24 49.6494 24 49.6543 24 49.6592C24 49.6641 24 49.669 24 49.6739C24 49.6788 24 49.6837 24 49.6886C24 49.6935 24 49.6984 24 49.7033C24 49.7082 24 49.7131 24 49.7181C24 49.723 24 49.7279 24 49.7328C24 49.7377 24 49.7426 24 49.7475C24 49.7524 24 49.7573 24 49.7622C24 49.7671 24 49.7721 24 49.777C24 49.7819 24 49.7868 24 49.7917C24 49.7966 24 49.8015 24 49.8064C24 49.8114 24 49.8163 24 49.8212C24 49.8261 24 49.831 24 49.836C24 49.8409 24 49.8458 24 49.8507C24 49.8556 24 49.8606 24 49.8655C24 49.8704 24 49.8753 24 49.8802C24 49.8852 24 49.8901 24 49.895C24 49.8999 24 49.9049 24 49.9098C24 49.9147 24 49.9197 24 49.9246C24 49.9295 24 49.9344 24 49.9394C24 49.9443 24 49.9492 24 49.9542C24 49.9591 24 49.964 24 49.969C24 49.9739 24 49.9788 24 49.9838C24 49.9887 24 49.9936 24 49.9986C24 50.0035 24 50.0084 24 50.0134C24 50.0183 24 50.0233 24 50.0282C24 50.0331 24 50.0381 24 50.043C24 50.048 24 50.0529 24 50.0578C24 50.0628 24 50.0677 24 50.0727C24 50.0776 24 50.0826 24 50.0875C24 50.0924 24 50.0974 24 50.1023C24 50.1073 24 50.1122 24 50.1172C24 50.1221 24 50.1271 24 50.132C24 50.137 24 50.1419 24 50.1469C24 50.1518 24 50.1568 24 50.1617C24 50.1667 24 50.1716 24 50.1766C24 50.1816 24 50.1865 24 50.1915C24 50.1964 24 50.2014 24 50.2063C24 50.2113 24 50.2163 24 50.2212C24 50.2262 24 50.2311 24 50.2361C24 50.2411 24 50.246 24 50.251C24 50.2559 24 50.2609 24 50.2659C24 50.2708 24 50.2758 24 50.2808C24 50.2857 24 50.2907 24 50.2957C24 50.3006 24 50.3056 24 50.3106C24 50.3155 24 50.3205 24 50.3255C24 50.3304 24 50.3354 24 50.3404C24 50.3454 24 50.3503 24 50.3553C24 50.3603 24 50.3653 24 50.3702C24 50.3752 24 50.3802 24 50.3852C24 50.3901 24 50.3951 24 50.4001C24 50.4051 24 50.41 24 50.415C24 50.42 24 50.425 24 50.43C24 50.4349 24 50.4399 24 50.4449C24 50.4499 24 50.4549 24 50.4599C24 50.4648 24 50.4698 24 50.4748C24 50.4798 24 50.4848 24 50.4898C24 50.4947 24 50.4997 24 50.5047C24 50.5097 24 50.5147 24 50.5197C24 50.5247 24 50.5297 24 50.5347C24 50.5396 24 50.5446 24 50.5496C24 50.5546 24 50.5596 24 50.5646C24 50.5696 24 50.5746 24 50.5796C24 50.5846 24 50.5896 24 50.5946C24 50.5996 24 50.6046 24 50.6096C24 50.6146 24 50.6196 24 50.6246C24 50.6296 24 50.6346 24 50.6396C24 50.6446 24 50.6496 24 50.6546C24 50.6596 24 50.6646 24 50.6696C24 50.6746 24 50.6796 24 50.6846C24 50.6896 24 50.6946 24 50.6996C24 50.7046 24 50.7097 24 50.7147C24 50.7197 24 50.7247 24 50.7297C24 50.7347 24 50.7397 24 50.7447C24 50.7497 24 50.7547 24 50.7598C24 50.7648 24 50.7698 24 50.7748C24 50.7798 24 50.7848 24 50.7899C24 50.7949 24 50.7999 24 50.8049C24 50.8099 24 50.8149 24 50.82C24 50.825 24 50.83 24 50.835C24 50.84 24 50.8451 24 50.8501C24 50.8551 24 50.8601 24 50.8652C24 50.8702 24 50.8752 24 50.8802C24 50.8853 24 50.8903 24 50.8953C24 50.9003 24 50.9054 24 50.9104C24 50.9154 24 50.9204 24 50.9255C24 50.9305 24 50.9355 24 50.9406C24 50.9456 24 50.9506 24 50.9557C24 50.9607 24 50.9657 24 50.9708C24 50.9758 24 50.9808 24 50.9859C24 50.9909 24 50.9959 24 51.001C24 51.006 24 51.011 24 51.0161C24 51.0211 24 51.0262 24 51.0312C24 51.0362 24 51.0413 24 51.0463C24 51.0514 24 51.0564 24 51.0614C24 51.0665 24 51.0715 24 51.0766C24 51.0816 24 51.0867 24 51.0917C24 51.0967 24 51.1018 24 51.1068C24 51.1119 24 51.1169 24 51.122C24 51.127 24 51.1321 24 51.1371C24 51.1422 24 51.1472 24 51.1523C24 51.1573 24 51.1624 24 51.1674C24 51.1725 24 51.1775 24 51.1826C24 51.1876 24 51.1927 24 51.1978C24 51.2028 24 51.2079 24 51.2129C24 51.218 24 51.223 24 51.2281C24 51.2332 24 51.2382 24 51.2433C24 51.2483 24 51.2534 24 51.2585C24 51.2635 24 51.2686 24 51.2736C24 51.2787 24 51.2838 24 51.2888C24 51.2939 24 51.299 24 51.304C24 51.3091 24 51.3142 24 51.3192C24 51.3243 24 51.3294 24 51.3344C24 51.3395 24 51.3446 24 51.3496C24 51.3547 24 51.3598 24 51.3648C24 51.3699 24 51.375 24 51.3801C24 51.3851 24 51.3902 24 51.3953C24 51.4003 24 51.4054 24 51.4105C24 51.4156 24 51.4206 24 51.4257C24 51.4308 24 51.4359 24 51.441C24 51.446 24 51.4511 24 51.4562C24 51.4613 24 51.4664 24 51.4714C24 51.4765 24 51.4816 24 51.4867C24 51.4918 24 51.4968 24 51.5019C24 51.507 24 51.5121 24 51.5172C24 51.5223 24 51.5273 24 51.5324C24 51.5375 24 51.5426 24 51.5477C24 51.5528 24 51.5579 24 51.563C24 51.568 24 51.5731 24 51.5782C24 51.5833 24 51.5884 24 51.5935C24 51.5986 24 51.6037 24 51.6088C24 51.6139 24 51.619 24 51.6241C24 51.6292 24 51.6342 24 51.6393C24 51.6444 24 51.6495 24 51.6546C24 51.6597 24 51.6648 24 51.6699C24 51.675 24 51.6801 24 51.6852C24 51.6903 24 51.6954 24 51.7005C24 51.7056 24 51.7107 24 51.7158C24 51.7209 24 51.726 24 51.7311C24 51.7362 24 51.7413 24 51.7465C24 51.7516 24 51.7567 24 51.7618C24 51.7669 24 51.772 24 51.7771C24 51.7822 24 51.7873 24 51.7924C24 51.7975 24 51.8026 24 51.8078C24 51.8129 24 51.818 24 51.8231C24 51.8282 24 51.8333 24 51.8384C24 51.8435 24 51.8487 24 51.8538C24 51.8589 24 51.864 24 51.8691C24 51.8742 24 51.8793 24 51.8845C24 51.8896 24 51.8947 24 51.8998C24 51.9049 24 51.9101 24 51.9152C24 51.9203 24 51.9254 24 51.9305C24 51.9357 24 51.9408 24 51.9459C24 51.951 24 51.9562 24 51.9613C24 51.9664 24 51.9715 24 51.9767C24 51.9818 24 51.9869 24 51.992C24 51.9972 24 52.0023 24 52.0074C24 52.0125 24 52.0177 24 52.0228C24 52.0279 24 52.0331 24 52.0382C24 52.0433 24 52.0485 24 52.0536C24 52.0587 24 52.0639 24 52.069C24 52.0741 24 52.0793 24 52.0844C24 52.0895 24 52.0947 24 52.0998C24 52.1049 24 52.1101 24 52.1152C24 52.1203 24 52.1255 24 52.1306C24 52.1358 24 52.1409 24 52.146C24 52.1512 24 52.1563 24 52.1615C24 52.1666 24 52.1717 24 52.1769C24 52.182 24 52.1872 24 52.1923C24 52.1975 24 52.2026 24 52.2078C24 52.2129 24 52.218 24 52.2232C24 52.2283 24 52.2335 24 52.2386C24 52.2438 24 52.2489 24 52.2541C24 52.2592 24 52.2644 24 52.2695C24 52.2747 24 52.2798 24 52.285C24 52.2901 24 52.2953 24 52.3004C24 52.3056 24 52.3107 24 52.3159C24 52.3211 24 52.3262 24 52.3314C24 52.3365 24 52.3417 24 52.3468C24 52.352 24 52.3572 24 52.3623C24 52.3675 24 52.3726 24 52.3778C24 52.3829 24 52.3881 24 52.3933C24 52.3984 24 52.4036 24 52.4088C24 52.4139 24 52.4191 24 52.4242C24 52.4294 24 52.4346 24 52.4397C24 52.4449 24 52.4501 24 52.4552C24 52.4604 24 52.4656 24 52.4707C24 52.4759 24 52.4811 24 52.4862C24 52.4914 24 52.4966 24 52.5018C24 52.5069 24 52.5121 24 52.5173C24 52.5224 24 52.5276 24 52.5328C24 52.5379 24 52.5431 24 52.5483C24 52.5535 24 52.5586 24 52.5638C24 52.569 24 52.5742 24 52.5793C24 52.5845 24 52.5897 24 52.5949C24 52.6001 24 52.6052 24 52.6104C24 52.6156 24 52.6208 24 52.626C24 52.6311 24 52.6363 24 52.6415C24 52.6467 24 52.6519 24 52.657C24 52.6622 24 52.6674 24 52.6726C24 52.6778 24 52.683 24 52.6881C24 52.6933 24 52.6985 24 52.7037C24 52.7089 24 52.7141 24 52.7193C24 52.7245 24 52.7296 24 52.7348C24 52.74 24 52.7452 24 52.7504C24 52.7556 24 52.7608 24 52.766C24 52.7712 24 52.7764 24 52.7815C24 52.7867 24 52.7919 24 52.7971C24 52.8023 24 52.8075 24 52.8127C24 52.8179 24 52.8231 24 52.8283C24 52.8335 24 52.8387 24 52.8439C24 52.8491 24 52.8543 24 52.8595C24 52.8647 24 52.8699 24 52.8751C24 52.8803 24 52.8855 24 52.8907C24 52.8959 24 52.9011 24 52.9063C24 52.9115 24 52.9167 24 52.9219C24 52.9271 24 52.9323 24 52.9375C24 52.9427 24 52.9479 24 52.9531C24 52.9583 24 52.9636 24 52.9688C24 52.974 24 52.9792 24 52.9844C24 52.9896 24 52.9948 24 53C24 53.0052 24 53.0104 24 53.0156C24 53.0209 24 53.0261 24 53.0313C24 53.0365 24 53.0417 24 53.0469C24 53.0521 24 53.0573 24 53.0626C24 53.0678 24 53.073 24 53.0782C24 53.0834 24 53.0886 24 53.0939C24 53.0991 24 53.1043 24 53.1095C24 53.1147 24 53.12 24 53.1252C24 53.1304 24 53.1356 24 53.1408C24 53.1461 24 53.1513 24 53.1565C24 53.1617 24 53.1669 24 53.1722C24 53.1774 24 53.1826 24 53.1878C24 53.1931 24 53.1983 24 53.2035C24 53.2087 24 53.214 24 53.2192C24 53.2244 24 53.2296 24 53.2349C24 53.2401 24 53.2453 24 53.2506C24 53.2558 24 53.261 24 53.2663C24 53.2715 24 53.2767 24 53.2819C24 53.2872 24 53.2924 24 53.2976C24 53.3029 24 53.3081 24 53.3133C24 53.3186 24 53.3238 24 53.3291C24 53.3343 24 53.3395 24 53.3448C24 53.35 24 53.3552 24 53.3605C24 53.3657 24 53.3709 24 53.3762C24 53.3814 24 53.3867 24 53.3919C24 53.3971 24 53.4024 24 53.4076C24 53.4129 24 53.4181 24 53.4234C24 53.4286 24 53.4338 24 53.4391C24 53.4443 24 53.4496 24 53.4548C24 53.4601 24 53.4653 24 53.4706C24 53.4758 24 53.481 24 53.4863C24 53.4915 24 53.4968 24 53.502C24 53.5073 24 53.5125 24 53.5178C24 53.523 24 53.5283 24 53.5335C24 53.5388 24 53.544 24 53.5493C24 53.5545 24 53.5598 24 53.565C24 53.5703 24 53.5756 24 53.5808C24 53.5861 24 53.5913 24 53.5966C24 53.6018 24 53.6071 24 53.6123C24 53.6176 24 53.6229 24 53.6281C24 53.6334 24 53.6386 24 53.6439C24 53.6491 24 53.6544 24 53.6597C24 53.6649 24 53.6702 24 53.6754C24 53.6807 24 53.686 24 53.6912C24 53.6965 24 53.7018 24 53.707C24 53.7123 24 53.7175 24 53.7228C24 53.7281 24 53.7333 24 53.7386C24 53.7439 24 53.7491 24 53.7544C24 53.7597 24 53.7649 24 53.7702C24 53.7755 24 53.7808 24 53.786C24 53.7913 24 53.7966 24 53.8018C24 53.8071 24 53.8124 24 53.8176C24 53.8229 24 53.8282 24 53.8335C24 53.8387 24 53.844 24 53.8493C24 53.8545 24 53.8598 24 53.8651C24 53.8704 24 53.8757 24 53.8809C24 53.8862 24 53.8915 24 53.8968C24 53.902 24 53.9073 24 53.9126C24 53.9179 24 53.9231 24 53.9284C24 53.9337 24 53.939 24 53.9443C24 53.9495 24 53.9548 24 53.9601C24 53.9654 24 53.9707 24 53.976C24 53.9812 24 53.9865 24 53.9918C24 53.9971 24 54.0024 24 54.0077C24 54.0129 24 54.0182 24 54.0235C24 54.0288 24 54.0341 24 54.0394C24 54.0447 24 54.05 24 54.0552C24 54.0605 24 54.0658 24 54.0711C24 54.0764 24 54.0817 24 54.087C24 54.0923 24 54.0976 24 54.1029C24 54.1081 24 54.1134 24 54.1187C24 54.124 24 54.1293 24 54.1346C24 54.1399 24 54.1452 24 54.1505C24 54.1558 24 54.1611 24 54.1664C24 54.1717 24 54.177 24 54.1823C24 54.1876 24 54.1929 24 54.1982C24 54.2035 24 54.2088 24 54.2141C24 54.2194 24 54.2247 24 54.23C24 54.2353 24 54.2406 24 54.2459C24 54.2512 24 54.2565 24 54.2618C24 54.2671 24 54.2724 24 54.2777C24 54.283 24 54.2883 24 54.2936C24 54.2989 24 54.3042 24 54.3095C24 54.3148 24 54.3201 24 54.3254C24 54.3307 24 54.336 24 54.3414C24 54.3467 24 54.352 24 54.3573C24 54.3626 24 54.3679 24 54.3732C24 54.3785 24 54.3838 24 54.3891C24 54.3945 24 54.3998 24 54.4051C24 54.4104 24 54.4157 24 54.421C24 54.4263 24 54.4316 24 54.437C24 54.4423 24 54.4476 24 54.4529C24 54.4582 24 54.4635 24 54.4689C24 54.4742 24 54.4795 24 54.4848C24 54.4901 24 54.4954 24 54.5008C24 54.5061 24 54.5114 24 54.5167C24 54.522 24 54.5274 24 54.5327C24 54.538 24 54.5433 24 54.5486C24 54.554 24 54.5593 24 54.5646C24 54.5699 24 54.5753 24 54.5806C24 54.5859 24 54.5912 24 54.5966C24 54.6019 24 54.6072 24 54.6125C24 54.6179 24 54.6232 24 54.6285C24 54.6338 24 54.6392 24 54.6445C24 54.6498 24 54.6552 24 54.6605C24 54.6658 24 54.6711 24 54.6765C24 54.6818 24 54.6871 24 54.6925C24 54.6978 24 54.7031 24 54.7085C24 54.7138 24 54.7191 24 54.7245C24 54.7298 24 54.7351 24 54.7405C24 54.7458 24 54.7511 24 54.7565C24 54.7618 24 54.7671 24 54.7725C24 54.7778 24 54.7832 24 54.7885C24 54.7938 24 54.7992 24 54.8045C24 54.8098 24 54.8152 24 54.8205C24 54.8259 24 54.8312 24 54.8365C24 54.8419 24 54.8472 24 54.8526C24 54.8579 24 54.8633 24 54.8686C24 54.8739 24 54.8793 24 54.8846C24 54.89 24 54.8953 24 54.9007C24 54.906 24 54.9114 24 54.9167C24 54.922 24 54.9274 24 54.9327C24 54.9381 24 54.9434 24 54.9488C24 54.9541 24 54.9595 24 54.9648H26ZM36.5714 36.6917H52V34.6917H36.5714V36.6917ZM62.5714 47.2611C62.5714 47.2657 62.5714 47.2704 62.5714 47.275C62.5714 47.2796 62.5714 47.2842 62.5714 47.2888C62.5714 47.2934 62.5714 47.298 62.5714 47.3026C62.5714 47.3073 62.5714 47.3119 62.5714 47.3165C62.5714 47.3211 62.5714 47.3257 62.5714 47.3303C62.5714 47.335 62.5714 47.3396 62.5714 47.3442C62.5714 47.3488 62.5714 47.3534 62.5714 47.3581C62.5714 47.3627 62.5714 47.3673 62.5714 47.3719C62.5714 47.3765 62.5714 47.3812 62.5714 47.3858C62.5714 47.3904 62.5714 47.395 62.5714 47.3997C62.5714 47.4043 62.5714 47.4089 62.5714 47.4136C62.5714 47.4182 62.5714 47.4228 62.5714 47.4274C62.5714 47.4321 62.5714 47.4367 62.5714 47.4413C62.5714 47.446 62.5714 47.4506 62.5714 47.4552C62.5714 47.4599 62.5714 47.4645 62.5714 47.4691C62.5714 47.4738 62.5714 47.4784 62.5714 47.4831C62.5714 47.4877 62.5714 47.4923 62.5714 47.497C62.5714 47.5016 62.5714 47.5063 62.5714 47.5109C62.5714 47.5155 62.5714 47.5202 62.5714 47.5248C62.5714 47.5295 62.5714 47.5341 62.5714 47.5388C62.5714 47.5434 62.5714 47.548 62.5714 47.5527C62.5714 47.5573 62.5714 47.562 62.5714 47.5666C62.5714 47.5713 62.5714 47.5759 62.5714 47.5806C62.5714 47.5852 62.5714 47.5899 62.5714 47.5945C62.5714 47.5992 62.5714 47.6039 62.5714 47.6085C62.5714 47.6132 62.5714 47.6178 62.5714 47.6225C62.5714 47.6271 62.5714 47.6318 62.5714 47.6364C62.5714 47.6411 62.5714 47.6458 62.5714 47.6504C62.5714 47.6551 62.5714 47.6597 62.5714 47.6644C62.5714 47.6691 62.5714 47.6737 62.5714 47.6784C62.5714 47.6831 62.5714 47.6877 62.5714 47.6924C62.5714 47.6971 62.5714 47.7017 62.5714 47.7064C62.5714 47.7111 62.5714 47.7157 62.5714 47.7204C62.5714 47.7251 62.5714 47.7297 62.5714 47.7344C62.5714 47.7391 62.5714 47.7438 62.5714 47.7484C62.5714 47.7531 62.5714 47.7578 62.5714 47.7624C62.5714 47.7671 62.5714 47.7718 62.5714 47.7765C62.5714 47.7812 62.5714 47.7858 62.5714 47.7905C62.5714 47.7952 62.5714 47.7999 62.5714 47.8045C62.5714 47.8092 62.5714 47.8139 62.5714 47.8186C62.5714 47.8233 62.5714 47.828 62.5714 47.8326C62.5714 47.8373 62.5714 47.842 62.5714 47.8467C62.5714 47.8514 62.5714 47.8561 62.5714 47.8608C62.5714 47.8654 62.5714 47.8701 62.5714 47.8748C62.5714 47.8795 62.5714 47.8842 62.5714 47.8889C62.5714 47.8936 62.5714 47.8983 62.5714 47.903C62.5714 47.9077 62.5714 47.9123 62.5714 47.917C62.5714 47.9217 62.5714 47.9264 62.5714 47.9311C62.5714 47.9358 62.5714 47.9405 62.5714 47.9452C62.5714 47.9499 62.5714 47.9546 62.5714 47.9593C62.5714 47.964 62.5714 47.9687 62.5714 47.9734C62.5714 47.9781 62.5714 47.9828 62.5714 47.9875C62.5714 47.9922 62.5714 47.9969 62.5714 48.0016C62.5714 48.0064 62.5714 48.0111 62.5714 48.0158C62.5714 48.0205 62.5714 48.0252 62.5714 48.0299C62.5714 48.0346 62.5714 48.0393 62.5714 48.044C62.5714 48.0487 62.5714 48.0534 62.5714 48.0582C62.5714 48.0629 62.5714 48.0676 62.5714 48.0723C62.5714 48.077 62.5714 48.0817 62.5714 48.0864C62.5714 48.0912 62.5714 48.0959 62.5714 48.1006C62.5714 48.1053 62.5714 48.11 62.5714 48.1147C62.5714 48.1195 62.5714 48.1242 62.5714 48.1289C62.5714 48.1336 62.5714 48.1384 62.5714 48.1431C62.5714 48.1478 62.5714 48.1525 62.5714 48.1572C62.5714 48.162 62.5714 48.1667 62.5714 48.1714C62.5714 48.1762 62.5714 48.1809 62.5714 48.1856C62.5714 48.1903 62.5714 48.1951 62.5714 48.1998C62.5714 48.2045 62.5714 48.2093 62.5714 48.214C62.5714 48.2187 62.5714 48.2235 62.5714 48.2282C62.5714 48.2329 62.5714 48.2377 62.5714 48.2424C62.5714 48.2471 62.5714 48.2519 62.5714 48.2566C62.5714 48.2613 62.5714 48.2661 62.5714 48.2708C62.5714 48.2756 62.5714 48.2803 62.5714 48.285C62.5714 48.2898 62.5714 48.2945 62.5714 48.2993C62.5714 48.304 62.5714 48.3088 62.5714 48.3135C62.5714 48.3182 62.5714 48.323 62.5714 48.3277C62.5714 48.3325 62.5714 48.3372 62.5714 48.342C62.5714 48.3467 62.5714 48.3515 62.5714 48.3562C62.5714 48.361 62.5714 48.3657 62.5714 48.3705C62.5714 48.3752 62.5714 48.38 62.5714 48.3847C62.5714 48.3895 62.5714 48.3942 62.5714 48.399C62.5714 48.4037 62.5714 48.4085 62.5714 48.4133C62.5714 48.418 62.5714 48.4228 62.5714 48.4275C62.5714 48.4323 62.5714 48.437 62.5714 48.4418C62.5714 48.4466 62.5714 48.4513 62.5714 48.4561C62.5714 48.4608 62.5714 48.4656 62.5714 48.4704C62.5714 48.4751 62.5714 48.4799 62.5714 48.4847C62.5714 48.4894 62.5714 48.4942 62.5714 48.499C62.5714 48.5037 62.5714 48.5085 62.5714 48.5133C62.5714 48.518 62.5714 48.5228 62.5714 48.5276C62.5714 48.5323 62.5714 48.5371 62.5714 48.5419C62.5714 48.5467 62.5714 48.5514 62.5714 48.5562C62.5714 48.561 62.5714 48.5658 62.5714 48.5705C62.5714 48.5753 62.5714 48.5801 62.5714 48.5849C62.5714 48.5896 62.5714 48.5944 62.5714 48.5992C62.5714 48.604 62.5714 48.6088 62.5714 48.6135C62.5714 48.6183 62.5714 48.6231 62.5714 48.6279C62.5714 48.6327 62.5714 48.6375 62.5714 48.6422C62.5714 48.647 62.5714 48.6518 62.5714 48.6566C62.5714 48.6614 62.5714 48.6662 62.5714 48.671C62.5714 48.6757 62.5714 48.6805 62.5714 48.6853C62.5714 48.6901 62.5714 48.6949 62.5714 48.6997C62.5714 48.7045 62.5714 48.7093 62.5714 48.7141C62.5714 48.7189 62.5714 48.7236 62.5714 48.7284C62.5714 48.7332 62.5714 48.738 62.5714 48.7428C62.5714 48.7476 62.5714 48.7524 62.5714 48.7572C62.5714 48.762 62.5714 48.7668 62.5714 48.7716C62.5714 48.7764 62.5714 48.7812 62.5714 48.786C62.5714 48.7908 62.5714 48.7956 62.5714 48.8004C62.5714 48.8052 62.5714 48.81 62.5714 48.8148C62.5714 48.8196 62.5714 48.8244 62.5714 48.8293C62.5714 48.8341 62.5714 48.8389 62.5714 48.8437C62.5714 48.8485 62.5714 48.8533 62.5714 48.8581C62.5714 48.8629 62.5714 48.8677 62.5714 48.8725C62.5714 48.8773 62.5714 48.8822 62.5714 48.887C62.5714 48.8918 62.5714 48.8966 62.5714 48.9014C62.5714 48.9062 62.5714 48.911 62.5714 48.9159C62.5714 48.9207 62.5714 48.9255 62.5714 48.9303C62.5714 48.9351 62.5714 48.9399 62.5714 48.9448C62.5714 48.9496 62.5714 48.9544 62.5714 48.9592C62.5714 48.964 62.5714 48.9689 62.5714 48.9737C62.5714 48.9785 62.5714 48.9833 62.5714 48.9882C62.5714 48.993 62.5714 48.9978 62.5714 49.0026C62.5714 49.0075 62.5714 49.0123 62.5714 49.0171C62.5714 49.022 62.5714 49.0268 62.5714 49.0316C62.5714 49.0364 62.5714 49.0413 62.5714 49.0461C62.5714 49.0509 62.5714 49.0558 62.5714 49.0606C62.5714 49.0654 62.5714 49.0703 62.5714 49.0751C62.5714 49.0799 62.5714 49.0848 62.5714 49.0896C62.5714 49.0944 62.5714 49.0993 62.5714 49.1041C62.5714 49.109 62.5714 49.1138 62.5714 49.1186C62.5714 49.1235 62.5714 49.1283 62.5714 49.1332C62.5714 49.138 62.5714 49.1428 62.5714 49.1477C62.5714 49.1525 62.5714 49.1574 62.5714 49.1622C62.5714 49.1671 62.5714 49.1719 62.5714 49.1768C62.5714 49.1816 62.5714 49.1864 62.5714 49.1913C62.5714 49.1961 62.5714 49.201 62.5714 49.2058C62.5714 49.2107 62.5714 49.2155 62.5714 49.2204C62.5714 49.2252 62.5714 49.2301 62.5714 49.235C62.5714 49.2398 62.5714 49.2447 62.5714 49.2495C62.5714 49.2544 62.5714 49.2592 62.5714 49.2641C62.5714 49.2689 62.5714 49.2738 62.5714 49.2787C62.5714 49.2835 62.5714 49.2884 62.5714 49.2932C62.5714 49.2981 62.5714 49.3029 62.5714 49.3078C62.5714 49.3127 62.5714 49.3175 62.5714 49.3224C62.5714 49.3273 62.5714 49.3321 62.5714 49.337C62.5714 49.3419 62.5714 49.3467 62.5714 49.3516C62.5714 49.3564 62.5714 49.3613 62.5714 49.3662C62.5714 49.371 62.5714 49.3759 62.5714 49.3808C62.5714 49.3857 62.5714 49.3905 62.5714 49.3954C62.5714 49.4003 62.5714 49.4051 62.5714 49.41C62.5714 49.4149 62.5714 49.4198 62.5714 49.4246C62.5714 49.4295 62.5714 49.4344 62.5714 49.4393C62.5714 49.4441 62.5714 49.449 62.5714 49.4539C62.5714 49.4588 62.5714 49.4636 62.5714 49.4685C62.5714 49.4734 62.5714 49.4783 62.5714 49.4832C62.5714 49.488 62.5714 49.4929 62.5714 49.4978C62.5714 49.5027 62.5714 49.5076 62.5714 49.5125C62.5714 49.5173 62.5714 49.5222 62.5714 49.5271C62.5714 49.532 62.5714 49.5369 62.5714 49.5418C62.5714 49.5467 62.5714 49.5515 62.5714 49.5564C62.5714 49.5613 62.5714 49.5662 62.5714 49.5711C62.5714 49.576 62.5714 49.5809 62.5714 49.5858C62.5714 49.5907 62.5714 49.5956 62.5714 49.6005C62.5714 49.6053 62.5714 49.6102 62.5714 49.6151C62.5714 49.62 62.5714 49.6249 62.5714 49.6298C62.5714 49.6347 62.5714 49.6396 62.5714 49.6445C62.5714 49.6494 62.5714 49.6543 62.5714 49.6592C62.5714 49.6641 62.5714 49.669 62.5714 49.6739C62.5714 49.6788 62.5714 49.6837 62.5714 49.6886C62.5714 49.6935 62.5714 49.6984 62.5714 49.7033C62.5714 49.7082 62.5714 49.7131 62.5714 49.7181C62.5714 49.723 62.5714 49.7279 62.5714 49.7328C62.5714 49.7377 62.5714 49.7426 62.5714 49.7475C62.5714 49.7524 62.5714 49.7573 62.5714 49.7622C62.5714 49.7671 62.5714 49.7721 62.5714 49.777C62.5714 49.7819 62.5714 49.7868 62.5714 49.7917C62.5714 49.7966 62.5714 49.8015 62.5714 49.8064C62.5714 49.8114 62.5714 49.8163 62.5714 49.8212C62.5714 49.8261 62.5714 49.831 62.5714 49.836C62.5714 49.8409 62.5714 49.8458 62.5714 49.8507C62.5714 49.8556 62.5714 49.8606 62.5714 49.8655C62.5714 49.8704 62.5714 49.8753 62.5714 49.8802C62.5714 49.8852 62.5714 49.8901 62.5714 49.895C62.5714 49.8999 62.5714 49.9049 62.5714 49.9098C62.5714 49.9147 62.5714 49.9197 62.5714 49.9246C62.5714 49.9295 62.5714 49.9344 62.5714 49.9394C62.5714 49.9443 62.5714 49.9492 62.5714 49.9542C62.5714 49.9591 62.5714 49.964 62.5714 49.969C62.5714 49.9739 62.5714 49.9788 62.5714 49.9838C62.5714 49.9887 62.5714 49.9936 62.5714 49.9986C62.5714 50.0035 62.5714 50.0084 62.5714 50.0134C62.5714 50.0183 62.5714 50.0233 62.5714 50.0282C62.5714 50.0331 62.5714 50.0381 62.5714 50.043C62.5714 50.048 62.5714 50.0529 62.5714 50.0578C62.5714 50.0628 62.5714 50.0677 62.5714 50.0727C62.5714 50.0776 62.5714 50.0826 62.5714 50.0875C62.5714 50.0924 62.5714 50.0974 62.5714 50.1023C62.5714 50.1073 62.5714 50.1122 62.5714 50.1172C62.5714 50.1221 62.5714 50.1271 62.5714 50.132C62.5714 50.137 62.5714 50.1419 62.5714 50.1469C62.5714 50.1518 62.5714 50.1568 62.5714 50.1617C62.5714 50.1667 62.5714 50.1716 62.5714 50.1766C62.5714 50.1816 62.5714 50.1865 62.5714 50.1915C62.5714 50.1964 62.5714 50.2014 62.5714 50.2063C62.5714 50.2113 62.5714 50.2163 62.5714 50.2212C62.5714 50.2262 62.5714 50.2311 62.5714 50.2361C62.5714 50.2411 62.5714 50.246 62.5714 50.251C62.5714 50.2559 62.5714 50.2609 62.5714 50.2659C62.5714 50.2708 62.5714 50.2758 62.5714 50.2808C62.5714 50.2857 62.5714 50.2907 62.5714 50.2957C62.5714 50.3006 62.5714 50.3056 62.5714 50.3106C62.5714 50.3155 62.5714 50.3205 62.5714 50.3255C62.5714 50.3304 62.5714 50.3354 62.5714 50.3404C62.5714 50.3454 62.5714 50.3503 62.5714 50.3553C62.5714 50.3603 62.5714 50.3653 62.5714 50.3702C62.5714 50.3752 62.5714 50.3802 62.5714 50.3852C62.5714 50.3901 62.5714 50.3951 62.5714 50.4001C62.5714 50.4051 62.5714 50.41 62.5714 50.415C62.5714 50.42 62.5714 50.425 62.5714 50.43C62.5714 50.4349 62.5714 50.4399 62.5714 50.4449C62.5714 50.4499 62.5714 50.4549 62.5714 50.4599C62.5714 50.4648 62.5714 50.4698 62.5714 50.4748C62.5714 50.4798 62.5714 50.4848 62.5714 50.4898C62.5714 50.4947 62.5714 50.4997 62.5714 50.5047C62.5714 50.5097 62.5714 50.5147 62.5714 50.5197C62.5714 50.5247 62.5714 50.5297 62.5714 50.5347C62.5714 50.5396 62.5714 50.5446 62.5714 50.5496C62.5714 50.5546 62.5714 50.5596 62.5714 50.5646C62.5714 50.5696 62.5714 50.5746 62.5714 50.5796C62.5714 50.5846 62.5714 50.5896 62.5714 50.5946C62.5714 50.5996 62.5714 50.6046 62.5714 50.6096C62.5714 50.6146 62.5714 50.6196 62.5714 50.6246C62.5714 50.6296 62.5714 50.6346 62.5714 50.6396C62.5714 50.6446 62.5714 50.6496 62.5714 50.6546C62.5714 50.6596 62.5714 50.6646 62.5714 50.6696C62.5714 50.6746 62.5714 50.6796 62.5714 50.6846C62.5714 50.6896 62.5714 50.6946 62.5714 50.6996C62.5714 50.7046 62.5714 50.7097 62.5714 50.7147C62.5714 50.7197 62.5714 50.7247 62.5714 50.7297C62.5714 50.7347 62.5714 50.7397 62.5714 50.7447C62.5714 50.7497 62.5714 50.7547 62.5714 50.7598C62.5714 50.7648 62.5714 50.7698 62.5714 50.7748C62.5714 50.7798 62.5714 50.7848 62.5714 50.7899C62.5714 50.7949 62.5714 50.7999 62.5714 50.8049C62.5714 50.8099 62.5714 50.8149 62.5714 50.82C62.5714 50.825 62.5714 50.83 62.5714 50.835C62.5714 50.84 62.5714 50.8451 62.5714 50.8501C62.5714 50.8551 62.5714 50.8601 62.5714 50.8652C62.5714 50.8702 62.5714 50.8752 62.5714 50.8802C62.5714 50.8853 62.5714 50.8903 62.5714 50.8953C62.5714 50.9003 62.5714 50.9054 62.5714 50.9104C62.5714 50.9154 62.5714 50.9204 62.5714 50.9255C62.5714 50.9305 62.5714 50.9355 62.5714 50.9406C62.5714 50.9456 62.5714 50.9506 62.5714 50.9557C62.5714 50.9607 62.5714 50.9657 62.5714 50.9708C62.5714 50.9758 62.5714 50.9808 62.5714 50.9859C62.5714 50.9909 62.5714 50.9959 62.5714 51.001C62.5714 51.006 62.5714 51.011 62.5714 51.0161C62.5714 51.0211 62.5714 51.0262 62.5714 51.0312C62.5714 51.0362 62.5714 51.0413 62.5714 51.0463C62.5714 51.0514 62.5714 51.0564 62.5714 51.0614C62.5714 51.0665 62.5714 51.0715 62.5714 51.0766C62.5714 51.0816 62.5714 51.0867 62.5714 51.0917C62.5714 51.0967 62.5714 51.1018 62.5714 51.1068C62.5714 51.1119 62.5714 51.1169 62.5714 51.122C62.5714 51.127 62.5714 51.1321 62.5714 51.1371C62.5714 51.1422 62.5714 51.1472 62.5714 51.1523C62.5714 51.1573 62.5714 51.1624 62.5714 51.1674C62.5714 51.1725 62.5714 51.1775 62.5714 51.1826C62.5714 51.1876 62.5714 51.1927 62.5714 51.1978C62.5714 51.2028 62.5714 51.2079 62.5714 51.2129C62.5714 51.218 62.5714 51.223 62.5714 51.2281C62.5714 51.2332 62.5714 51.2382 62.5714 51.2433C62.5714 51.2483 62.5714 51.2534 62.5714 51.2585C62.5714 51.2635 62.5714 51.2686 62.5714 51.2736C62.5714 51.2787 62.5714 51.2838 62.5714 51.2888C62.5714 51.2939 62.5714 51.299 62.5714 51.304C62.5714 51.3091 62.5714 51.3142 62.5714 51.3192C62.5714 51.3243 62.5714 51.3294 62.5714 51.3344C62.5714 51.3395 62.5714 51.3446 62.5714 51.3496C62.5714 51.3547 62.5714 51.3598 62.5714 51.3648C62.5714 51.3699 62.5714 51.375 62.5714 51.3801C62.5714 51.3851 62.5714 51.3902 62.5714 51.3953C62.5714 51.4003 62.5714 51.4054 62.5714 51.4105C62.5714 51.4156 62.5714 51.4206 62.5714 51.4257C62.5714 51.4308 62.5714 51.4359 62.5714 51.441C62.5714 51.446 62.5714 51.4511 62.5714 51.4562C62.5714 51.4613 62.5714 51.4664 62.5714 51.4714C62.5714 51.4765 62.5714 51.4816 62.5714 51.4867C62.5714 51.4918 62.5714 51.4968 62.5714 51.5019C62.5714 51.507 62.5714 51.5121 62.5714 51.5172C62.5714 51.5223 62.5714 51.5273 62.5714 51.5324C62.5714 51.5375 62.5714 51.5426 62.5714 51.5477C62.5714 51.5528 62.5714 51.5579 62.5714 51.563C62.5714 51.568 62.5714 51.5731 62.5714 51.5782C62.5714 51.5833 62.5714 51.5884 62.5714 51.5935C62.5714 51.5986 62.5714 51.6037 62.5714 51.6088C62.5714 51.6139 62.5714 51.619 62.5714 51.6241C62.5714 51.6292 62.5714 51.6342 62.5714 51.6393C62.5714 51.6444 62.5714 51.6495 62.5714 51.6546C62.5714 51.6597 62.5714 51.6648 62.5714 51.6699C62.5714 51.675 62.5714 51.6801 62.5714 51.6852C62.5714 51.6903 62.5714 51.6954 62.5714 51.7005C62.5714 51.7056 62.5714 51.7107 62.5714 51.7158C62.5714 51.7209 62.5714 51.726 62.5714 51.7311C62.5714 51.7362 62.5714 51.7413 62.5714 51.7465C62.5714 51.7516 62.5714 51.7567 62.5714 51.7618C62.5714 51.7669 62.5714 51.772 62.5714 51.7771C62.5714 51.7822 62.5714 51.7873 62.5714 51.7924C62.5714 51.7975 62.5714 51.8026 62.5714 51.8078C62.5714 51.8129 62.5714 51.818 62.5714 51.8231C62.5714 51.8282 62.5714 51.8333 62.5714 51.8384C62.5714 51.8435 62.5714 51.8487 62.5714 51.8538C62.5714 51.8589 62.5714 51.864 62.5714 51.8691C62.5714 51.8742 62.5714 51.8793 62.5714 51.8845C62.5714 51.8896 62.5714 51.8947 62.5714 51.8998C62.5714 51.9049 62.5714 51.9101 62.5714 51.9152C62.5714 51.9203 62.5714 51.9254 62.5714 51.9305C62.5714 51.9357 62.5714 51.9408 62.5714 51.9459C62.5714 51.951 62.5714 51.9562 62.5714 51.9613C62.5714 51.9664 62.5714 51.9715 62.5714 51.9767C62.5714 51.9818 62.5714 51.9869 62.5714 51.992C62.5714 51.9972 62.5714 52.0023 62.5714 52.0074C62.5714 52.0125 62.5714 52.0177 62.5714 52.0228C62.5714 52.0279 62.5714 52.0331 62.5714 52.0382C62.5714 52.0433 62.5714 52.0485 62.5714 52.0536C62.5714 52.0587 62.5714 52.0639 62.5714 52.069C62.5714 52.0741 62.5714 52.0793 62.5714 52.0844C62.5714 52.0895 62.5714 52.0947 62.5714 52.0998C62.5714 52.1049 62.5714 52.1101 62.5714 52.1152C62.5714 52.1203 62.5714 52.1255 62.5714 52.1306C62.5714 52.1358 62.5714 52.1409 62.5714 52.146C62.5714 52.1512 62.5714 52.1563 62.5714 52.1615C62.5714 52.1666 62.5714 52.1717 62.5714 52.1769C62.5714 52.182 62.5714 52.1872 62.5714 52.1923C62.5714 52.1975 62.5714 52.2026 62.5714 52.2078C62.5714 52.2129 62.5714 52.218 62.5714 52.2232C62.5714 52.2283 62.5714 52.2335 62.5714 52.2386C62.5714 52.2438 62.5714 52.2489 62.5714 52.2541C62.5714 52.2592 62.5714 52.2644 62.5714 52.2695C62.5714 52.2747 62.5714 52.2798 62.5714 52.285C62.5714 52.2901 62.5714 52.2953 62.5714 52.3004C62.5714 52.3056 62.5714 52.3107 62.5714 52.3159C62.5714 52.3211 62.5714 52.3262 62.5714 52.3314C62.5714 52.3365 62.5714 52.3417 62.5714 52.3468C62.5714 52.352 62.5714 52.3572 62.5714 52.3623C62.5714 52.3675 62.5714 52.3726 62.5714 52.3778C62.5714 52.3829 62.5714 52.3881 62.5714 52.3933C62.5714 52.3984 62.5714 52.4036 62.5714 52.4088C62.5714 52.4139 62.5714 52.4191 62.5714 52.4242C62.5714 52.4294 62.5714 52.4346 62.5714 52.4397C62.5714 52.4449 62.5714 52.4501 62.5714 52.4552C62.5714 52.4604 62.5714 52.4656 62.5714 52.4707C62.5714 52.4759 62.5714 52.4811 62.5714 52.4862C62.5714 52.4914 62.5714 52.4966 62.5714 52.5018C62.5714 52.5069 62.5714 52.5121 62.5714 52.5173C62.5714 52.5224 62.5714 52.5276 62.5714 52.5328C62.5714 52.5379 62.5714 52.5431 62.5714 52.5483C62.5714 52.5535 62.5714 52.5586 62.5714 52.5638C62.5714 52.569 62.5714 52.5742 62.5714 52.5793C62.5714 52.5845 62.5714 52.5897 62.5714 52.5949C62.5714 52.6001 62.5714 52.6052 62.5714 52.6104C62.5714 52.6156 62.5714 52.6208 62.5714 52.626C62.5714 52.6311 62.5714 52.6363 62.5714 52.6415C62.5714 52.6467 62.5714 52.6519 62.5714 52.657C62.5714 52.6622 62.5714 52.6674 62.5714 52.6726C62.5714 52.6778 62.5714 52.683 62.5714 52.6881C62.5714 52.6933 62.5714 52.6985 62.5714 52.7037C62.5714 52.7089 62.5714 52.7141 62.5714 52.7193C62.5714 52.7245 62.5714 52.7296 62.5714 52.7348C62.5714 52.74 62.5714 52.7452 62.5714 52.7504C62.5714 52.7556 62.5714 52.7608 62.5714 52.766C62.5714 52.7712 62.5714 52.7764 62.5714 52.7815C62.5714 52.7867 62.5714 52.7919 62.5714 52.7971C62.5714 52.8023 62.5714 52.8075 62.5714 52.8127C62.5714 52.8179 62.5714 52.8231 62.5714 52.8283C62.5714 52.8335 62.5714 52.8387 62.5714 52.8439C62.5714 52.8491 62.5714 52.8543 62.5714 52.8595C62.5714 52.8647 62.5714 52.8699 62.5714 52.8751C62.5714 52.8803 62.5714 52.8855 62.5714 52.8907C62.5714 52.8959 62.5714 52.9011 62.5714 52.9063C62.5714 52.9115 62.5714 52.9167 62.5714 52.9219C62.5714 52.9271 62.5714 52.9323 62.5714 52.9375C62.5714 52.9427 62.5714 52.9479 62.5714 52.9531C62.5714 52.9583 62.5714 52.9636 62.5714 52.9688C62.5714 52.974 62.5714 52.9792 62.5714 52.9844C62.5714 52.9896 62.5714 52.9948 62.5714 53C62.5714 53.0052 62.5714 53.0104 62.5714 53.0156C62.5714 53.0209 62.5714 53.0261 62.5714 53.0313C62.5714 53.0365 62.5714 53.0417 62.5714 53.0469C62.5714 53.0521 62.5714 53.0573 62.5714 53.0626C62.5714 53.0678 62.5714 53.073 62.5714 53.0782C62.5714 53.0834 62.5714 53.0886 62.5714 53.0939C62.5714 53.0991 62.5714 53.1043 62.5714 53.1095C62.5714 53.1147 62.5714 53.12 62.5714 53.1252C62.5714 53.1304 62.5714 53.1356 62.5714 53.1408C62.5714 53.1461 62.5714 53.1513 62.5714 53.1565C62.5714 53.1617 62.5714 53.1669 62.5714 53.1722C62.5714 53.1774 62.5714 53.1826 62.5714 53.1878C62.5714 53.1931 62.5714 53.1983 62.5714 53.2035C62.5714 53.2087 62.5714 53.214 62.5714 53.2192C62.5714 53.2244 62.5714 53.2296 62.5714 53.2349C62.5714 53.2401 62.5714 53.2453 62.5714 53.2506C62.5714 53.2558 62.5714 53.261 62.5714 53.2663C62.5714 53.2715 62.5714 53.2767 62.5714 53.2819C62.5714 53.2872 62.5714 53.2924 62.5714 53.2976C62.5714 53.3029 62.5714 53.3081 62.5714 53.3133C62.5714 53.3186 62.5714 53.3238 62.5714 53.3291C62.5714 53.3343 62.5714 53.3395 62.5714 53.3448C62.5714 53.35 62.5714 53.3552 62.5714 53.3605C62.5714 53.3657 62.5714 53.3709 62.5714 53.3762C62.5714 53.3814 62.5714 53.3867 62.5714 53.3919C62.5714 53.3971 62.5714 53.4024 62.5714 53.4076C62.5714 53.4129 62.5714 53.4181 62.5714 53.4234C62.5714 53.4286 62.5714 53.4338 62.5714 53.4391C62.5714 53.4443 62.5714 53.4496 62.5714 53.4548C62.5714 53.4601 62.5714 53.4653 62.5714 53.4706C62.5714 53.4758 62.5714 53.481 62.5714 53.4863C62.5714 53.4915 62.5714 53.4968 62.5714 53.502C62.5714 53.5073 62.5714 53.5125 62.5714 53.5178C62.5714 53.523 62.5714 53.5283 62.5714 53.5335C62.5714 53.5388 62.5714 53.544 62.5714 53.5493C62.5714 53.5545 62.5714 53.5598 62.5714 53.565C62.5714 53.5703 62.5714 53.5756 62.5714 53.5808C62.5714 53.5861 62.5714 53.5913 62.5714 53.5966C62.5714 53.6018 62.5714 53.6071 62.5714 53.6123C62.5714 53.6176 62.5714 53.6229 62.5714 53.6281C62.5714 53.6334 62.5714 53.6386 62.5714 53.6439C62.5714 53.6491 62.5714 53.6544 62.5714 53.6597C62.5714 53.6649 62.5714 53.6702 62.5714 53.6754C62.5714 53.6807 62.5714 53.686 62.5714 53.6912C62.5714 53.6965 62.5714 53.7018 62.5714 53.707C62.5714 53.7123 62.5714 53.7175 62.5714 53.7228C62.5714 53.7281 62.5714 53.7333 62.5714 53.7386C62.5714 53.7439 62.5714 53.7491 62.5714 53.7544C62.5714 53.7597 62.5714 53.7649 62.5714 53.7702C62.5714 53.7755 62.5714 53.7808 62.5714 53.786C62.5714 53.7913 62.5714 53.7966 62.5714 53.8018C62.5714 53.8071 62.5714 53.8124 62.5714 53.8176C62.5714 53.8229 62.5714 53.8282 62.5714 53.8335C62.5714 53.8387 62.5714 53.844 62.5714 53.8493C62.5714 53.8545 62.5714 53.8598 62.5714 53.8651C62.5714 53.8704 62.5714 53.8757 62.5714 53.8809C62.5714 53.8862 62.5714 53.8915 62.5714 53.8968C62.5714 53.902 62.5714 53.9073 62.5714 53.9126C62.5714 53.9179 62.5714 53.9231 62.5714 53.9284C62.5714 53.9337 62.5714 53.939 62.5714 53.9443C62.5714 53.9495 62.5714 53.9548 62.5714 53.9601C62.5714 53.9654 62.5714 53.9707 62.5714 53.976C62.5714 53.9812 62.5714 53.9865 62.5714 53.9918C62.5714 53.9971 62.5714 54.0024 62.5714 54.0077C62.5714 54.0129 62.5714 54.0182 62.5714 54.0235C62.5714 54.0288 62.5714 54.0341 62.5714 54.0394C62.5714 54.0447 62.5714 54.05 62.5714 54.0552C62.5714 54.0605 62.5714 54.0658 62.5714 54.0711C62.5714 54.0764 62.5714 54.0817 62.5714 54.087C62.5714 54.0923 62.5714 54.0976 62.5714 54.1029C62.5714 54.1081 62.5714 54.1134 62.5714 54.1187C62.5714 54.124 62.5714 54.1293 62.5714 54.1346C62.5714 54.1399 62.5714 54.1452 62.5714 54.1505C62.5714 54.1558 62.5714 54.1611 62.5714 54.1664C62.5714 54.1717 62.5714 54.177 62.5714 54.1823C62.5714 54.1876 62.5714 54.1929 62.5714 54.1982C62.5714 54.2035 62.5714 54.2088 62.5714 54.2141C62.5714 54.2194 62.5714 54.2247 62.5714 54.23C62.5714 54.2353 62.5714 54.2406 62.5714 54.2459C62.5714 54.2512 62.5714 54.2565 62.5714 54.2618C62.5714 54.2671 62.5714 54.2724 62.5714 54.2777C62.5714 54.283 62.5714 54.2883 62.5714 54.2936C62.5714 54.2989 62.5714 54.3042 62.5714 54.3095C62.5714 54.3148 62.5714 54.3201 62.5714 54.3254C62.5714 54.3307 62.5714 54.336 62.5714 54.3414C62.5714 54.3467 62.5714 54.352 62.5714 54.3573C62.5714 54.3626 62.5714 54.3679 62.5714 54.3732C62.5714 54.3785 62.5714 54.3838 62.5714 54.3891C62.5714 54.3945 62.5714 54.3998 62.5714 54.4051C62.5714 54.4104 62.5714 54.4157 62.5714 54.421C62.5714 54.4263 62.5714 54.4316 62.5714 54.437C62.5714 54.4423 62.5714 54.4476 62.5714 54.4529C62.5714 54.4582 62.5714 54.4635 62.5714 54.4689C62.5714 54.4742 62.5714 54.4795 62.5714 54.4848C62.5714 54.4901 62.5714 54.4954 62.5714 54.5008C62.5714 54.5061 62.5714 54.5114 62.5714 54.5167C62.5714 54.522 62.5714 54.5274 62.5714 54.5327C62.5714 54.538 62.5714 54.5433 62.5714 54.5486C62.5714 54.554 62.5714 54.5593 62.5714 54.5646C62.5714 54.5699 62.5714 54.5753 62.5714 54.5806C62.5714 54.5859 62.5714 54.5912 62.5714 54.5966C62.5714 54.6019 62.5714 54.6072 62.5714 54.6125C62.5714 54.6179 62.5714 54.6232 62.5714 54.6285C62.5714 54.6338 62.5714 54.6392 62.5714 54.6445C62.5714 54.6498 62.5714 54.6552 62.5714 54.6605C62.5714 54.6658 62.5714 54.6711 62.5714 54.6765C62.5714 54.6818 62.5714 54.6871 62.5714 54.6925C62.5714 54.6978 62.5714 54.7031 62.5714 54.7085C62.5714 54.7138 62.5714 54.7191 62.5714 54.7245C62.5714 54.7298 62.5714 54.7351 62.5714 54.7405C62.5714 54.7458 62.5714 54.7511 62.5714 54.7565C62.5714 54.7618 62.5714 54.7671 62.5714 54.7725C62.5714 54.7778 62.5714 54.7832 62.5714 54.7885C62.5714 54.7938 62.5714 54.7992 62.5714 54.8045C62.5714 54.8098 62.5714 54.8152 62.5714 54.8205C62.5714 54.8259 62.5714 54.8312 62.5714 54.8365C62.5714 54.8419 62.5714 54.8472 62.5714 54.8526C62.5714 54.8579 62.5714 54.8633 62.5714 54.8686C62.5714 54.8739 62.5714 54.8793 62.5714 54.8846C62.5714 54.89 62.5714 54.8953 62.5714 54.9007C62.5714 54.906 62.5714 54.9114 62.5714 54.9167C62.5714 54.922 62.5714 54.9274 62.5714 54.9327C62.5714 54.9381 62.5714 54.9434 62.5714 54.9488C62.5714 54.9541 62.5714 54.9595 62.5714 54.9648H64.5714C64.5714 54.9595 64.5714 54.9541 64.5714 54.9488C64.5714 54.9434 64.5714 54.9381 64.5714 54.9327C64.5714 54.9274 64.5714 54.922 64.5714 54.9167C64.5714 54.9114 64.5714 54.906 64.5714 54.9007C64.5714 54.8953 64.5714 54.89 64.5714 54.8846C64.5714 54.8793 64.5714 54.8739 64.5714 54.8686C64.5714 54.8633 64.5714 54.8579 64.5714 54.8526C64.5714 54.8472 64.5714 54.8419 64.5714 54.8365C64.5714 54.8312 64.5714 54.8259 64.5714 54.8205C64.5714 54.8152 64.5714 54.8098 64.5714 54.8045C64.5714 54.7992 64.5714 54.7938 64.5714 54.7885C64.5714 54.7832 64.5714 54.7778 64.5714 54.7725C64.5714 54.7671 64.5714 54.7618 64.5714 54.7565C64.5714 54.7511 64.5714 54.7458 64.5714 54.7405C64.5714 54.7351 64.5714 54.7298 64.5714 54.7245C64.5714 54.7191 64.5714 54.7138 64.5714 54.7085C64.5714 54.7031 64.5714 54.6978 64.5714 54.6925C64.5714 54.6871 64.5714 54.6818 64.5714 54.6765C64.5714 54.6711 64.5714 54.6658 64.5714 54.6605C64.5714 54.6552 64.5714 54.6498 64.5714 54.6445C64.5714 54.6392 64.5714 54.6338 64.5714 54.6285C64.5714 54.6232 64.5714 54.6179 64.5714 54.6125C64.5714 54.6072 64.5714 54.6019 64.5714 54.5966C64.5714 54.5912 64.5714 54.5859 64.5714 54.5806C64.5714 54.5753 64.5714 54.5699 64.5714 54.5646C64.5714 54.5593 64.5714 54.554 64.5714 54.5486C64.5714 54.5433 64.5714 54.538 64.5714 54.5327C64.5714 54.5274 64.5714 54.522 64.5714 54.5167C64.5714 54.5114 64.5714 54.5061 64.5714 54.5008C64.5714 54.4954 64.5714 54.4901 64.5714 54.4848C64.5714 54.4795 64.5714 54.4742 64.5714 54.4689C64.5714 54.4635 64.5714 54.4582 64.5714 54.4529C64.5714 54.4476 64.5714 54.4423 64.5714 54.437C64.5714 54.4316 64.5714 54.4263 64.5714 54.421C64.5714 54.4157 64.5714 54.4104 64.5714 54.4051C64.5714 54.3998 64.5714 54.3945 64.5714 54.3891C64.5714 54.3838 64.5714 54.3785 64.5714 54.3732C64.5714 54.3679 64.5714 54.3626 64.5714 54.3573C64.5714 54.352 64.5714 54.3467 64.5714 54.3414C64.5714 54.336 64.5714 54.3307 64.5714 54.3254C64.5714 54.3201 64.5714 54.3148 64.5714 54.3095C64.5714 54.3042 64.5714 54.2989 64.5714 54.2936C64.5714 54.2883 64.5714 54.283 64.5714 54.2777C64.5714 54.2724 64.5714 54.2671 64.5714 54.2618C64.5714 54.2565 64.5714 54.2512 64.5714 54.2459C64.5714 54.2406 64.5714 54.2353 64.5714 54.23C64.5714 54.2247 64.5714 54.2194 64.5714 54.2141C64.5714 54.2088 64.5714 54.2035 64.5714 54.1982C64.5714 54.1929 64.5714 54.1876 64.5714 54.1823C64.5714 54.177 64.5714 54.1717 64.5714 54.1664C64.5714 54.1611 64.5714 54.1558 64.5714 54.1505C64.5714 54.1452 64.5714 54.1399 64.5714 54.1346C64.5714 54.1293 64.5714 54.124 64.5714 54.1187C64.5714 54.1134 64.5714 54.1081 64.5714 54.1029C64.5714 54.0976 64.5714 54.0923 64.5714 54.087C64.5714 54.0817 64.5714 54.0764 64.5714 54.0711C64.5714 54.0658 64.5714 54.0605 64.5714 54.0552C64.5714 54.05 64.5714 54.0447 64.5714 54.0394C64.5714 54.0341 64.5714 54.0288 64.5714 54.0235C64.5714 54.0182 64.5714 54.0129 64.5714 54.0077C64.5714 54.0024 64.5714 53.9971 64.5714 53.9918C64.5714 53.9865 64.5714 53.9812 64.5714 53.976C64.5714 53.9707 64.5714 53.9654 64.5714 53.9601C64.5714 53.9548 64.5714 53.9495 64.5714 53.9443C64.5714 53.939 64.5714 53.9337 64.5714 53.9284C64.5714 53.9231 64.5714 53.9179 64.5714 53.9126C64.5714 53.9073 64.5714 53.902 64.5714 53.8968C64.5714 53.8915 64.5714 53.8862 64.5714 53.8809C64.5714 53.8757 64.5714 53.8704 64.5714 53.8651C64.5714 53.8598 64.5714 53.8545 64.5714 53.8493C64.5714 53.844 64.5714 53.8387 64.5714 53.8335C64.5714 53.8282 64.5714 53.8229 64.5714 53.8176C64.5714 53.8124 64.5714 53.8071 64.5714 53.8018C64.5714 53.7966 64.5714 53.7913 64.5714 53.786C64.5714 53.7808 64.5714 53.7755 64.5714 53.7702C64.5714 53.7649 64.5714 53.7597 64.5714 53.7544C64.5714 53.7491 64.5714 53.7439 64.5714 53.7386C64.5714 53.7333 64.5714 53.7281 64.5714 53.7228C64.5714 53.7175 64.5714 53.7123 64.5714 53.707C64.5714 53.7018 64.5714 53.6965 64.5714 53.6912C64.5714 53.686 64.5714 53.6807 64.5714 53.6754C64.5714 53.6702 64.5714 53.6649 64.5714 53.6597C64.5714 53.6544 64.5714 53.6491 64.5714 53.6439C64.5714 53.6386 64.5714 53.6334 64.5714 53.6281C64.5714 53.6229 64.5714 53.6176 64.5714 53.6123C64.5714 53.6071 64.5714 53.6018 64.5714 53.5966C64.5714 53.5913 64.5714 53.5861 64.5714 53.5808C64.5714 53.5756 64.5714 53.5703 64.5714 53.565C64.5714 53.5598 64.5714 53.5545 64.5714 53.5493C64.5714 53.544 64.5714 53.5388 64.5714 53.5335C64.5714 53.5283 64.5714 53.523 64.5714 53.5178C64.5714 53.5125 64.5714 53.5073 64.5714 53.502C64.5714 53.4968 64.5714 53.4915 64.5714 53.4863C64.5714 53.481 64.5714 53.4758 64.5714 53.4706C64.5714 53.4653 64.5714 53.4601 64.5714 53.4548C64.5714 53.4496 64.5714 53.4443 64.5714 53.4391C64.5714 53.4338 64.5714 53.4286 64.5714 53.4234C64.5714 53.4181 64.5714 53.4129 64.5714 53.4076C64.5714 53.4024 64.5714 53.3971 64.5714 53.3919C64.5714 53.3867 64.5714 53.3814 64.5714 53.3762C64.5714 53.3709 64.5714 53.3657 64.5714 53.3605C64.5714 53.3552 64.5714 53.35 64.5714 53.3448C64.5714 53.3395 64.5714 53.3343 64.5714 53.3291C64.5714 53.3238 64.5714 53.3186 64.5714 53.3133C64.5714 53.3081 64.5714 53.3029 64.5714 53.2976C64.5714 53.2924 64.5714 53.2872 64.5714 53.2819C64.5714 53.2767 64.5714 53.2715 64.5714 53.2663C64.5714 53.261 64.5714 53.2558 64.5714 53.2506C64.5714 53.2453 64.5714 53.2401 64.5714 53.2349C64.5714 53.2296 64.5714 53.2244 64.5714 53.2192C64.5714 53.214 64.5714 53.2087 64.5714 53.2035C64.5714 53.1983 64.5714 53.1931 64.5714 53.1878C64.5714 53.1826 64.5714 53.1774 64.5714 53.1722C64.5714 53.1669 64.5714 53.1617 64.5714 53.1565C64.5714 53.1513 64.5714 53.1461 64.5714 53.1408C64.5714 53.1356 64.5714 53.1304 64.5714 53.1252C64.5714 53.12 64.5714 53.1147 64.5714 53.1095C64.5714 53.1043 64.5714 53.0991 64.5714 53.0939C64.5714 53.0886 64.5714 53.0834 64.5714 53.0782C64.5714 53.073 64.5714 53.0678 64.5714 53.0626C64.5714 53.0573 64.5714 53.0521 64.5714 53.0469C64.5714 53.0417 64.5714 53.0365 64.5714 53.0313C64.5714 53.0261 64.5714 53.0209 64.5714 53.0156C64.5714 53.0104 64.5714 53.0052 64.5714 53C64.5714 52.9948 64.5714 52.9896 64.5714 52.9844C64.5714 52.9792 64.5714 52.974 64.5714 52.9688C64.5714 52.9636 64.5714 52.9583 64.5714 52.9531C64.5714 52.9479 64.5714 52.9427 64.5714 52.9375C64.5714 52.9323 64.5714 52.9271 64.5714 52.9219C64.5714 52.9167 64.5714 52.9115 64.5714 52.9063C64.5714 52.9011 64.5714 52.8959 64.5714 52.8907C64.5714 52.8855 64.5714 52.8803 64.5714 52.8751C64.5714 52.8699 64.5714 52.8647 64.5714 52.8595C64.5714 52.8543 64.5714 52.8491 64.5714 52.8439C64.5714 52.8387 64.5714 52.8335 64.5714 52.8283C64.5714 52.8231 64.5714 52.8179 64.5714 52.8127C64.5714 52.8075 64.5714 52.8023 64.5714 52.7971C64.5714 52.7919 64.5714 52.7867 64.5714 52.7815C64.5714 52.7764 64.5714 52.7712 64.5714 52.766C64.5714 52.7608 64.5714 52.7556 64.5714 52.7504C64.5714 52.7452 64.5714 52.74 64.5714 52.7348C64.5714 52.7296 64.5714 52.7245 64.5714 52.7193C64.5714 52.7141 64.5714 52.7089 64.5714 52.7037C64.5714 52.6985 64.5714 52.6933 64.5714 52.6881C64.5714 52.683 64.5714 52.6778 64.5714 52.6726C64.5714 52.6674 64.5714 52.6622 64.5714 52.657C64.5714 52.6519 64.5714 52.6467 64.5714 52.6415C64.5714 52.6363 64.5714 52.6311 64.5714 52.626C64.5714 52.6208 64.5714 52.6156 64.5714 52.6104C64.5714 52.6052 64.5714 52.6001 64.5714 52.5949C64.5714 52.5897 64.5714 52.5845 64.5714 52.5793C64.5714 52.5742 64.5714 52.569 64.5714 52.5638C64.5714 52.5586 64.5714 52.5535 64.5714 52.5483C64.5714 52.5431 64.5714 52.5379 64.5714 52.5328C64.5714 52.5276 64.5714 52.5224 64.5714 52.5173C64.5714 52.5121 64.5714 52.5069 64.5714 52.5018C64.5714 52.4966 64.5714 52.4914 64.5714 52.4862C64.5714 52.4811 64.5714 52.4759 64.5714 52.4707C64.5714 52.4656 64.5714 52.4604 64.5714 52.4552C64.5714 52.4501 64.5714 52.4449 64.5714 52.4397C64.5714 52.4346 64.5714 52.4294 64.5714 52.4242C64.5714 52.4191 64.5714 52.4139 64.5714 52.4088C64.5714 52.4036 64.5714 52.3984 64.5714 52.3933C64.5714 52.3881 64.5714 52.3829 64.5714 52.3778C64.5714 52.3726 64.5714 52.3675 64.5714 52.3623C64.5714 52.3572 64.5714 52.352 64.5714 52.3468C64.5714 52.3417 64.5714 52.3365 64.5714 52.3314C64.5714 52.3262 64.5714 52.3211 64.5714 52.3159C64.5714 52.3107 64.5714 52.3056 64.5714 52.3004C64.5714 52.2953 64.5714 52.2901 64.5714 52.285C64.5714 52.2798 64.5714 52.2747 64.5714 52.2695C64.5714 52.2644 64.5714 52.2592 64.5714 52.2541C64.5714 52.2489 64.5714 52.2438 64.5714 52.2386C64.5714 52.2335 64.5714 52.2283 64.5714 52.2232C64.5714 52.218 64.5714 52.2129 64.5714 52.2078C64.5714 52.2026 64.5714 52.1975 64.5714 52.1923C64.5714 52.1872 64.5714 52.182 64.5714 52.1769C64.5714 52.1717 64.5714 52.1666 64.5714 52.1615C64.5714 52.1563 64.5714 52.1512 64.5714 52.146C64.5714 52.1409 64.5714 52.1358 64.5714 52.1306C64.5714 52.1255 64.5714 52.1203 64.5714 52.1152C64.5714 52.1101 64.5714 52.1049 64.5714 52.0998C64.5714 52.0947 64.5714 52.0895 64.5714 52.0844C64.5714 52.0793 64.5714 52.0741 64.5714 52.069C64.5714 52.0639 64.5714 52.0587 64.5714 52.0536C64.5714 52.0485 64.5714 52.0433 64.5714 52.0382C64.5714 52.0331 64.5714 52.0279 64.5714 52.0228C64.5714 52.0177 64.5714 52.0125 64.5714 52.0074C64.5714 52.0023 64.5714 51.9972 64.5714 51.992C64.5714 51.9869 64.5714 51.9818 64.5714 51.9767C64.5714 51.9715 64.5714 51.9664 64.5714 51.9613C64.5714 51.9562 64.5714 51.951 64.5714 51.9459C64.5714 51.9408 64.5714 51.9357 64.5714 51.9305C64.5714 51.9254 64.5714 51.9203 64.5714 51.9152C64.5714 51.9101 64.5714 51.9049 64.5714 51.8998C64.5714 51.8947 64.5714 51.8896 64.5714 51.8845C64.5714 51.8793 64.5714 51.8742 64.5714 51.8691C64.5714 51.864 64.5714 51.8589 64.5714 51.8538C64.5714 51.8487 64.5714 51.8435 64.5714 51.8384C64.5714 51.8333 64.5714 51.8282 64.5714 51.8231C64.5714 51.818 64.5714 51.8129 64.5714 51.8078C64.5714 51.8026 64.5714 51.7975 64.5714 51.7924C64.5714 51.7873 64.5714 51.7822 64.5714 51.7771C64.5714 51.772 64.5714 51.7669 64.5714 51.7618C64.5714 51.7567 64.5714 51.7516 64.5714 51.7465C64.5714 51.7413 64.5714 51.7362 64.5714 51.7311C64.5714 51.726 64.5714 51.7209 64.5714 51.7158C64.5714 51.7107 64.5714 51.7056 64.5714 51.7005C64.5714 51.6954 64.5714 51.6903 64.5714 51.6852C64.5714 51.6801 64.5714 51.675 64.5714 51.6699C64.5714 51.6648 64.5714 51.6597 64.5714 51.6546C64.5714 51.6495 64.5714 51.6444 64.5714 51.6393C64.5714 51.6342 64.5714 51.6292 64.5714 51.6241C64.5714 51.619 64.5714 51.6139 64.5714 51.6088C64.5714 51.6037 64.5714 51.5986 64.5714 51.5935C64.5714 51.5884 64.5714 51.5833 64.5714 51.5782C64.5714 51.5731 64.5714 51.568 64.5714 51.563C64.5714 51.5579 64.5714 51.5528 64.5714 51.5477C64.5714 51.5426 64.5714 51.5375 64.5714 51.5324C64.5714 51.5273 64.5714 51.5223 64.5714 51.5172C64.5714 51.5121 64.5714 51.507 64.5714 51.5019C64.5714 51.4968 64.5714 51.4918 64.5714 51.4867C64.5714 51.4816 64.5714 51.4765 64.5714 51.4714C64.5714 51.4664 64.5714 51.4613 64.5714 51.4562C64.5714 51.4511 64.5714 51.446 64.5714 51.441C64.5714 51.4359 64.5714 51.4308 64.5714 51.4257C64.5714 51.4206 64.5714 51.4156 64.5714 51.4105C64.5714 51.4054 64.5714 51.4003 64.5714 51.3953C64.5714 51.3902 64.5714 51.3851 64.5714 51.3801C64.5714 51.375 64.5714 51.3699 64.5714 51.3648C64.5714 51.3598 64.5714 51.3547 64.5714 51.3496C64.5714 51.3446 64.5714 51.3395 64.5714 51.3344C64.5714 51.3294 64.5714 51.3243 64.5714 51.3192C64.5714 51.3142 64.5714 51.3091 64.5714 51.304C64.5714 51.299 64.5714 51.2939 64.5714 51.2888C64.5714 51.2838 64.5714 51.2787 64.5714 51.2736C64.5714 51.2686 64.5714 51.2635 64.5714 51.2585C64.5714 51.2534 64.5714 51.2483 64.5714 51.2433C64.5714 51.2382 64.5714 51.2332 64.5714 51.2281C64.5714 51.223 64.5714 51.218 64.5714 51.2129C64.5714 51.2079 64.5714 51.2028 64.5714 51.1978C64.5714 51.1927 64.5714 51.1876 64.5714 51.1826C64.5714 51.1775 64.5714 51.1725 64.5714 51.1674C64.5714 51.1624 64.5714 51.1573 64.5714 51.1523C64.5714 51.1472 64.5714 51.1422 64.5714 51.1371C64.5714 51.1321 64.5714 51.127 64.5714 51.122C64.5714 51.1169 64.5714 51.1119 64.5714 51.1068C64.5714 51.1018 64.5714 51.0967 64.5714 51.0917C64.5714 51.0867 64.5714 51.0816 64.5714 51.0766C64.5714 51.0715 64.5714 51.0665 64.5714 51.0614C64.5714 51.0564 64.5714 51.0514 64.5714 51.0463C64.5714 51.0413 64.5714 51.0362 64.5714 51.0312C64.5714 51.0262 64.5714 51.0211 64.5714 51.0161C64.5714 51.011 64.5714 51.006 64.5714 51.001C64.5714 50.9959 64.5714 50.9909 64.5714 50.9859C64.5714 50.9808 64.5714 50.9758 64.5714 50.9708C64.5714 50.9657 64.5714 50.9607 64.5714 50.9557C64.5714 50.9506 64.5714 50.9456 64.5714 50.9406C64.5714 50.9355 64.5714 50.9305 64.5714 50.9255C64.5714 50.9204 64.5714 50.9154 64.5714 50.9104C64.5714 50.9054 64.5714 50.9003 64.5714 50.8953C64.5714 50.8903 64.5714 50.8853 64.5714 50.8802C64.5714 50.8752 64.5714 50.8702 64.5714 50.8652C64.5714 50.8601 64.5714 50.8551 64.5714 50.8501C64.5714 50.8451 64.5714 50.84 64.5714 50.835C64.5714 50.83 64.5714 50.825 64.5714 50.82C64.5714 50.8149 64.5714 50.8099 64.5714 50.8049C64.5714 50.7999 64.5714 50.7949 64.5714 50.7899C64.5714 50.7848 64.5714 50.7798 64.5714 50.7748C64.5714 50.7698 64.5714 50.7648 64.5714 50.7598C64.5714 50.7547 64.5714 50.7497 64.5714 50.7447C64.5714 50.7397 64.5714 50.7347 64.5714 50.7297C64.5714 50.7247 64.5714 50.7197 64.5714 50.7147C64.5714 50.7097 64.5714 50.7046 64.5714 50.6996C64.5714 50.6946 64.5714 50.6896 64.5714 50.6846C64.5714 50.6796 64.5714 50.6746 64.5714 50.6696C64.5714 50.6646 64.5714 50.6596 64.5714 50.6546C64.5714 50.6496 64.5714 50.6446 64.5714 50.6396C64.5714 50.6346 64.5714 50.6296 64.5714 50.6246C64.5714 50.6196 64.5714 50.6146 64.5714 50.6096C64.5714 50.6046 64.5714 50.5996 64.5714 50.5946C64.5714 50.5896 64.5714 50.5846 64.5714 50.5796C64.5714 50.5746 64.5714 50.5696 64.5714 50.5646C64.5714 50.5596 64.5714 50.5546 64.5714 50.5496C64.5714 50.5446 64.5714 50.5396 64.5714 50.5347C64.5714 50.5297 64.5714 50.5247 64.5714 50.5197C64.5714 50.5147 64.5714 50.5097 64.5714 50.5047C64.5714 50.4997 64.5714 50.4947 64.5714 50.4898C64.5714 50.4848 64.5714 50.4798 64.5714 50.4748C64.5714 50.4698 64.5714 50.4648 64.5714 50.4599C64.5714 50.4549 64.5714 50.4499 64.5714 50.4449C64.5714 50.4399 64.5714 50.4349 64.5714 50.43C64.5714 50.425 64.5714 50.42 64.5714 50.415C64.5714 50.41 64.5714 50.4051 64.5714 50.4001C64.5714 50.3951 64.5714 50.3901 64.5714 50.3852C64.5714 50.3802 64.5714 50.3752 64.5714 50.3702C64.5714 50.3653 64.5714 50.3603 64.5714 50.3553C64.5714 50.3503 64.5714 50.3454 64.5714 50.3404C64.5714 50.3354 64.5714 50.3304 64.5714 50.3255C64.5714 50.3205 64.5714 50.3155 64.5714 50.3106C64.5714 50.3056 64.5714 50.3006 64.5714 50.2957C64.5714 50.2907 64.5714 50.2857 64.5714 50.2808C64.5714 50.2758 64.5714 50.2708 64.5714 50.2659C64.5714 50.2609 64.5714 50.2559 64.5714 50.251C64.5714 50.246 64.5714 50.2411 64.5714 50.2361C64.5714 50.2311 64.5714 50.2262 64.5714 50.2212C64.5714 50.2163 64.5714 50.2113 64.5714 50.2063C64.5714 50.2014 64.5714 50.1964 64.5714 50.1915C64.5714 50.1865 64.5714 50.1816 64.5714 50.1766C64.5714 50.1716 64.5714 50.1667 64.5714 50.1617C64.5714 50.1568 64.5714 50.1518 64.5714 50.1469C64.5714 50.1419 64.5714 50.137 64.5714 50.132C64.5714 50.1271 64.5714 50.1221 64.5714 50.1172C64.5714 50.1122 64.5714 50.1073 64.5714 50.1023C64.5714 50.0974 64.5714 50.0924 64.5714 50.0875C64.5714 50.0826 64.5714 50.0776 64.5714 50.0727C64.5714 50.0677 64.5714 50.0628 64.5714 50.0578C64.5714 50.0529 64.5714 50.048 64.5714 50.043C64.5714 50.0381 64.5714 50.0331 64.5714 50.0282C64.5714 50.0233 64.5714 50.0183 64.5714 50.0134C64.5714 50.0084 64.5714 50.0035 64.5714 49.9986C64.5714 49.9936 64.5714 49.9887 64.5714 49.9838C64.5714 49.9788 64.5714 49.9739 64.5714 49.969C64.5714 49.964 64.5714 49.9591 64.5714 49.9542C64.5714 49.9492 64.5714 49.9443 64.5714 49.9394C64.5714 49.9344 64.5714 49.9295 64.5714 49.9246C64.5714 49.9197 64.5714 49.9147 64.5714 49.9098C64.5714 49.9049 64.5714 49.8999 64.5714 49.895C64.5714 49.8901 64.5714 49.8852 64.5714 49.8802C64.5714 49.8753 64.5714 49.8704 64.5714 49.8655C64.5714 49.8606 64.5714 49.8556 64.5714 49.8507C64.5714 49.8458 64.5714 49.8409 64.5714 49.836C64.5714 49.831 64.5714 49.8261 64.5714 49.8212C64.5714 49.8163 64.5714 49.8114 64.5714 49.8064C64.5714 49.8015 64.5714 49.7966 64.5714 49.7917C64.5714 49.7868 64.5714 49.7819 64.5714 49.777C64.5714 49.7721 64.5714 49.7671 64.5714 49.7622C64.5714 49.7573 64.5714 49.7524 64.5714 49.7475C64.5714 49.7426 64.5714 49.7377 64.5714 49.7328C64.5714 49.7279 64.5714 49.723 64.5714 49.7181C64.5714 49.7131 64.5714 49.7082 64.5714 49.7033C64.5714 49.6984 64.5714 49.6935 64.5714 49.6886C64.5714 49.6837 64.5714 49.6788 64.5714 49.6739C64.5714 49.669 64.5714 49.6641 64.5714 49.6592C64.5714 49.6543 64.5714 49.6494 64.5714 49.6445C64.5714 49.6396 64.5714 49.6347 64.5714 49.6298C64.5714 49.6249 64.5714 49.62 64.5714 49.6151C64.5714 49.6102 64.5714 49.6053 64.5714 49.6005C64.5714 49.5956 64.5714 49.5907 64.5714 49.5858C64.5714 49.5809 64.5714 49.576 64.5714 49.5711C64.5714 49.5662 64.5714 49.5613 64.5714 49.5564C64.5714 49.5515 64.5714 49.5467 64.5714 49.5418C64.5714 49.5369 64.5714 49.532 64.5714 49.5271C64.5714 49.5222 64.5714 49.5173 64.5714 49.5125C64.5714 49.5076 64.5714 49.5027 64.5714 49.4978C64.5714 49.4929 64.5714 49.488 64.5714 49.4832C64.5714 49.4783 64.5714 49.4734 64.5714 49.4685C64.5714 49.4636 64.5714 49.4588 64.5714 49.4539C64.5714 49.449 64.5714 49.4441 64.5714 49.4393C64.5714 49.4344 64.5714 49.4295 64.5714 49.4246C64.5714 49.4198 64.5714 49.4149 64.5714 49.41C64.5714 49.4051 64.5714 49.4003 64.5714 49.3954C64.5714 49.3905 64.5714 49.3857 64.5714 49.3808C64.5714 49.3759 64.5714 49.371 64.5714 49.3662C64.5714 49.3613 64.5714 49.3564 64.5714 49.3516C64.5714 49.3467 64.5714 49.3419 64.5714 49.337C64.5714 49.3321 64.5714 49.3273 64.5714 49.3224C64.5714 49.3175 64.5714 49.3127 64.5714 49.3078C64.5714 49.3029 64.5714 49.2981 64.5714 49.2932C64.5714 49.2884 64.5714 49.2835 64.5714 49.2787C64.5714 49.2738 64.5714 49.2689 64.5714 49.2641C64.5714 49.2592 64.5714 49.2544 64.5714 49.2495C64.5714 49.2447 64.5714 49.2398 64.5714 49.235C64.5714 49.2301 64.5714 49.2252 64.5714 49.2204C64.5714 49.2155 64.5714 49.2107 64.5714 49.2058C64.5714 49.201 64.5714 49.1961 64.5714 49.1913C64.5714 49.1864 64.5714 49.1816 64.5714 49.1768C64.5714 49.1719 64.5714 49.1671 64.5714 49.1622C64.5714 49.1574 64.5714 49.1525 64.5714 49.1477C64.5714 49.1428 64.5714 49.138 64.5714 49.1332C64.5714 49.1283 64.5714 49.1235 64.5714 49.1186C64.5714 49.1138 64.5714 49.109 64.5714 49.1041C64.5714 49.0993 64.5714 49.0944 64.5714 49.0896C64.5714 49.0848 64.5714 49.0799 64.5714 49.0751C64.5714 49.0703 64.5714 49.0654 64.5714 49.0606C64.5714 49.0558 64.5714 49.0509 64.5714 49.0461C64.5714 49.0413 64.5714 49.0364 64.5714 49.0316C64.5714 49.0268 64.5714 49.022 64.5714 49.0171C64.5714 49.0123 64.5714 49.0075 64.5714 49.0026C64.5714 48.9978 64.5714 48.993 64.5714 48.9882C64.5714 48.9833 64.5714 48.9785 64.5714 48.9737C64.5714 48.9689 64.5714 48.964 64.5714 48.9592C64.5714 48.9544 64.5714 48.9496 64.5714 48.9448C64.5714 48.9399 64.5714 48.9351 64.5714 48.9303C64.5714 48.9255 64.5714 48.9207 64.5714 48.9159C64.5714 48.911 64.5714 48.9062 64.5714 48.9014C64.5714 48.8966 64.5714 48.8918 64.5714 48.887C64.5714 48.8822 64.5714 48.8773 64.5714 48.8725C64.5714 48.8677 64.5714 48.8629 64.5714 48.8581C64.5714 48.8533 64.5714 48.8485 64.5714 48.8437C64.5714 48.8389 64.5714 48.8341 64.5714 48.8293C64.5714 48.8244 64.5714 48.8196 64.5714 48.8148C64.5714 48.81 64.5714 48.8052 64.5714 48.8004C64.5714 48.7956 64.5714 48.7908 64.5714 48.786C64.5714 48.7812 64.5714 48.7764 64.5714 48.7716C64.5714 48.7668 64.5714 48.762 64.5714 48.7572C64.5714 48.7524 64.5714 48.7476 64.5714 48.7428C64.5714 48.738 64.5714 48.7332 64.5714 48.7284C64.5714 48.7236 64.5714 48.7189 64.5714 48.7141C64.5714 48.7093 64.5714 48.7045 64.5714 48.6997C64.5714 48.6949 64.5714 48.6901 64.5714 48.6853C64.5714 48.6805 64.5714 48.6757 64.5714 48.671C64.5714 48.6662 64.5714 48.6614 64.5714 48.6566C64.5714 48.6518 64.5714 48.647 64.5714 48.6422C64.5714 48.6375 64.5714 48.6327 64.5714 48.6279C64.5714 48.6231 64.5714 48.6183 64.5714 48.6135C64.5714 48.6088 64.5714 48.604 64.5714 48.5992C64.5714 48.5944 64.5714 48.5896 64.5714 48.5849C64.5714 48.5801 64.5714 48.5753 64.5714 48.5705C64.5714 48.5658 64.5714 48.561 64.5714 48.5562C64.5714 48.5514 64.5714 48.5467 64.5714 48.5419C64.5714 48.5371 64.5714 48.5323 64.5714 48.5276C64.5714 48.5228 64.5714 48.518 64.5714 48.5133C64.5714 48.5085 64.5714 48.5037 64.5714 48.499C64.5714 48.4942 64.5714 48.4894 64.5714 48.4847C64.5714 48.4799 64.5714 48.4751 64.5714 48.4704C64.5714 48.4656 64.5714 48.4608 64.5714 48.4561C64.5714 48.4513 64.5714 48.4466 64.5714 48.4418C64.5714 48.437 64.5714 48.4323 64.5714 48.4275C64.5714 48.4228 64.5714 48.418 64.5714 48.4133C64.5714 48.4085 64.5714 48.4037 64.5714 48.399C64.5714 48.3942 64.5714 48.3895 64.5714 48.3847C64.5714 48.38 64.5714 48.3752 64.5714 48.3705C64.5714 48.3657 64.5714 48.361 64.5714 48.3562C64.5714 48.3515 64.5714 48.3467 64.5714 48.342C64.5714 48.3372 64.5714 48.3325 64.5714 48.3277C64.5714 48.323 64.5714 48.3182 64.5714 48.3135C64.5714 48.3088 64.5714 48.304 64.5714 48.2993C64.5714 48.2945 64.5714 48.2898 64.5714 48.285C64.5714 48.2803 64.5714 48.2756 64.5714 48.2708C64.5714 48.2661 64.5714 48.2613 64.5714 48.2566C64.5714 48.2519 64.5714 48.2471 64.5714 48.2424C64.5714 48.2377 64.5714 48.2329 64.5714 48.2282C64.5714 48.2235 64.5714 48.2187 64.5714 48.214C64.5714 48.2093 64.5714 48.2045 64.5714 48.1998C64.5714 48.1951 64.5714 48.1903 64.5714 48.1856C64.5714 48.1809 64.5714 48.1762 64.5714 48.1714C64.5714 48.1667 64.5714 48.162 64.5714 48.1572C64.5714 48.1525 64.5714 48.1478 64.5714 48.1431C64.5714 48.1384 64.5714 48.1336 64.5714 48.1289C64.5714 48.1242 64.5714 48.1195 64.5714 48.1147C64.5714 48.11 64.5714 48.1053 64.5714 48.1006C64.5714 48.0959 64.5714 48.0912 64.5714 48.0864C64.5714 48.0817 64.5714 48.077 64.5714 48.0723C64.5714 48.0676 64.5714 48.0629 64.5714 48.0582C64.5714 48.0534 64.5714 48.0487 64.5714 48.044C64.5714 48.0393 64.5714 48.0346 64.5714 48.0299C64.5714 48.0252 64.5714 48.0205 64.5714 48.0158C64.5714 48.0111 64.5714 48.0064 64.5714 48.0016C64.5714 47.9969 64.5714 47.9922 64.5714 47.9875C64.5714 47.9828 64.5714 47.9781 64.5714 47.9734C64.5714 47.9687 64.5714 47.964 64.5714 47.9593C64.5714 47.9546 64.5714 47.9499 64.5714 47.9452C64.5714 47.9405 64.5714 47.9358 64.5714 47.9311C64.5714 47.9264 64.5714 47.9217 64.5714 47.917C64.5714 47.9123 64.5714 47.9077 64.5714 47.903C64.5714 47.8983 64.5714 47.8936 64.5714 47.8889C64.5714 47.8842 64.5714 47.8795 64.5714 47.8748C64.5714 47.8701 64.5714 47.8654 64.5714 47.8608C64.5714 47.8561 64.5714 47.8514 64.5714 47.8467C64.5714 47.842 64.5714 47.8373 64.5714 47.8326C64.5714 47.828 64.5714 47.8233 64.5714 47.8186C64.5714 47.8139 64.5714 47.8092 64.5714 47.8045C64.5714 47.7999 64.5714 47.7952 64.5714 47.7905C64.5714 47.7858 64.5714 47.7812 64.5714 47.7765C64.5714 47.7718 64.5714 47.7671 64.5714 47.7624C64.5714 47.7578 64.5714 47.7531 64.5714 47.7484C64.5714 47.7438 64.5714 47.7391 64.5714 47.7344C64.5714 47.7297 64.5714 47.7251 64.5714 47.7204C64.5714 47.7157 64.5714 47.7111 64.5714 47.7064C64.5714 47.7017 64.5714 47.6971 64.5714 47.6924C64.5714 47.6877 64.5714 47.6831 64.5714 47.6784C64.5714 47.6737 64.5714 47.6691 64.5714 47.6644C64.5714 47.6597 64.5714 47.6551 64.5714 47.6504C64.5714 47.6458 64.5714 47.6411 64.5714 47.6364C64.5714 47.6318 64.5714 47.6271 64.5714 47.6225C64.5714 47.6178 64.5714 47.6132 64.5714 47.6085C64.5714 47.6039 64.5714 47.5992 64.5714 47.5945C64.5714 47.5899 64.5714 47.5852 64.5714 47.5806C64.5714 47.5759 64.5714 47.5713 64.5714 47.5666C64.5714 47.562 64.5714 47.5573 64.5714 47.5527C64.5714 47.548 64.5714 47.5434 64.5714 47.5388C64.5714 47.5341 64.5714 47.5295 64.5714 47.5248C64.5714 47.5202 64.5714 47.5155 64.5714 47.5109C64.5714 47.5063 64.5714 47.5016 64.5714 47.497C64.5714 47.4923 64.5714 47.4877 64.5714 47.4831C64.5714 47.4784 64.5714 47.4738 64.5714 47.4691C64.5714 47.4645 64.5714 47.4599 64.5714 47.4552C64.5714 47.4506 64.5714 47.446 64.5714 47.4413C64.5714 47.4367 64.5714 47.4321 64.5714 47.4274C64.5714 47.4228 64.5714 47.4182 64.5714 47.4136C64.5714 47.4089 64.5714 47.4043 64.5714 47.3997C64.5714 47.395 64.5714 47.3904 64.5714 47.3858C64.5714 47.3812 64.5714 47.3765 64.5714 47.3719C64.5714 47.3673 64.5714 47.3627 64.5714 47.3581C64.5714 47.3534 64.5714 47.3488 64.5714 47.3442C64.5714 47.3396 64.5714 47.335 64.5714 47.3303C64.5714 47.3257 64.5714 47.3211 64.5714 47.3165C64.5714 47.3119 64.5714 47.3073 64.5714 47.3026C64.5714 47.298 64.5714 47.2934 64.5714 47.2888C64.5714 47.2842 64.5714 47.2796 64.5714 47.275C64.5714 47.2704 64.5714 47.2657 64.5714 47.2611H62.5714ZM52 36.6917C57.8387 36.6917 62.5714 41.4229 62.5714 47.2611H64.5714C64.5714 40.3179 58.9428 34.6917 52 34.6917V36.6917ZM26 47.2611C26 41.4229 30.7328 36.6917 36.5714 36.6917V34.6917C29.6286 34.6917 24 40.3179 24 47.2611H26ZM78 49.2143V55H80V49.2143H78ZM79 54H69.3571V56H79V54ZM69.3571 40.5714C74.1305 40.5714 78 44.441 78 49.2143H80C80 43.3364 75.235 38.5714 69.3571 38.5714V40.5714ZM67.4286 30.8571C63.7204 30.8571 60.7143 27.8511 60.7143 24.1429H58.7143C58.7143 28.9556 62.6158 32.8571 67.4286 32.8571V30.8571ZM74.1429 24.1429C74.1429 27.8511 71.1368 30.8571 67.4286 30.8571V32.8571C72.2413 32.8571 76.1429 28.9556 76.1429 24.1429H74.1429ZM67.4286 17.4286C71.1368 17.4286 74.1429 20.4347 74.1429 24.1429H76.1429C76.1429 19.3301 72.2413 15.4286 67.4286 15.4286V17.4286ZM67.4286 15.4286C62.6158 15.4286 58.7143 19.3301 58.7143 24.1429H60.7143C60.7143 20.4347 63.7204 17.4286 67.4286 17.4286V15.4286Z" fill="#0E1B2C"/>
</svg>
